<?xml version="1.0" encoding="UTF-8" standalone="no"?>
<svg
   width="14.2222in"
   height="14.2222in"
   viewBox="0 0 1024 1024"
   version="1.1"
   id="svg3"
   sodipodi:docname="passaro.svg"
   inkscape:version="1.2.2 (b0a8486541, 2022-12-01)"
   xmlns:inkscape="http://www.inkscape.org/namespaces/inkscape"
   xmlns:sodipodi="http://sodipodi.sourceforge.net/DTD/sodipodi-0.dtd"
   xmlns="http://www.w3.org/2000/svg"
   xmlns:svg="http://www.w3.org/2000/svg">
  <defs
     id="defs7" />
  <sodipodi:namedview
     id="namedview5"
     pagecolor="#ffffff"
     bordercolor="#000000"
     borderopacity="0.25"
     inkscape:showpageshadow="2"
     inkscape:pageopacity="0.0"
     inkscape:pagecheckerboard="0"
     inkscape:deskcolor="#d1d1d1"
     inkscape:document-units="in"
     showgrid="false"
     inkscape:zoom="9.1640766"
     inkscape:cx="653.80291"
     inkscape:cy="1002.6106"
     inkscape:window-width="1920"
     inkscape:window-height="1011"
     inkscape:window-x="0"
     inkscape:window-y="0"
     inkscape:window-maximized="1"
     inkscape:current-layer="svg3" />
  <path
     id="Seleção"
     fill="none"
     stroke="black"
     stroke-width="1"
     d="M 359.00,393.89            C 359.00,393.89 155.00,393.89 155.00,393.89              152.99,394.00 149.91,394.05 148.00,393.89              142.84,392.60 138.85,388.41 141.15,383.00              142.87,378.97 151.87,369.88 155.28,366.00              155.28,366.00 206.00,313.01 206.00,313.01              206.00,313.01 218.00,302.00 218.00,302.00              249.28,271.13 295.96,233.55 333.00,209.69              333.00,209.69 356.00,196.25 356.00,196.25              356.00,196.25 370.99,189.01 370.99,189.01              370.99,189.01 395.00,165.90 395.00,165.90              412.44,152.64 437.94,143.03 460.00,143.00              460.00,143.00 469.00,143.00 469.00,143.00              476.63,143.04 485.60,144.73 493.00,146.63              527.55,155.48 553.52,178.13 567.57,211.00              575.06,228.52 576.57,242.30 577.26,261.00              577.26,261.00 576.09,291.00 576.09,291.00              576.09,291.00 574.91,314.00 574.91,314.00              574.91,314.00 574.00,324.00 574.00,324.00              574.00,324.00 573.33,342.00 573.33,342.00              574.26,347.75 580.94,361.38 583.75,367.00              583.75,367.00 612.95,418.00 612.95,418.00              633.86,451.39 656.75,483.30 680.12,515.00              680.12,515.00 735.13,589.00 735.13,589.00              738.99,594.11 752.33,612.61 756.09,615.49              756.09,615.49 783.00,626.86 783.00,626.86              792.31,631.02 809.30,642.02 818.00,648.02              851.56,671.19 880.25,701.79 906.25,733.00              906.25,733.00 938.42,775.00 938.42,775.00              942.26,780.31 948.78,787.10 944.26,793.96              939.75,800.81 932.58,797.84 926.00,796.61              926.00,796.61 878.00,787.12 878.00,787.12              878.00,787.12 838.00,778.58 838.00,778.58              838.00,778.58 744.00,756.13 744.00,756.13              744.00,756.13 702.00,744.86 702.00,744.86              702.00,744.86 679.00,738.87 679.00,738.87              675.31,738.65 662.51,743.86 658.00,745.33              644.88,749.61 635.54,751.41 622.00,753.42              617.37,754.11 604.52,754.67 601.64,757.51              601.64,757.51 592.14,776.00 592.14,776.00              592.14,776.00 569.40,816.00 569.40,816.00              565.73,822.12 561.06,831.31 556.00,836.00              556.00,836.00 567.00,817.00 567.00,817.00              567.00,817.00 587.22,782.00 587.22,782.00              587.22,782.00 595.75,765.00 595.75,765.00              597.06,762.39 599.18,757.48 601.39,755.74              603.78,753.85 614.33,753.25 618.00,752.73              630.93,750.88 641.41,748.72 654.00,745.14              654.00,745.14 677.00,737.50 677.00,737.50              681.16,737.22 699.86,742.83 705.00,744.29              705.00,744.29 757.00,758.12 757.00,758.12              757.00,758.12 802.00,768.88 802.00,768.88              802.00,768.88 880.00,786.20 880.00,786.20              880.00,786.20 934.83,797.01 934.83,797.01              940.56,797.55 945.50,792.79 944.06,787.00              943.14,783.32 932.76,769.85 929.87,766.00              906.47,734.75 886.67,711.66 859.00,684.00              842.26,667.26 812.84,644.61 792.00,633.31              784.97,629.50 776.44,625.26 769.00,622.42              764.80,620.82 756.74,618.49 753.66,615.58              753.66,615.58 727.27,581.00 727.27,581.00              727.27,581.00 689.12,530.00 689.12,530.00              662.83,494.29 636.52,458.58 612.95,421.00              599.68,399.84 586.10,378.06 576.42,355.00              570.57,341.06 571.94,343.17 572.91,329.00              572.91,329.00 573.94,314.00 573.94,314.00              573.94,314.00 573.94,305.00 573.94,305.00              573.94,305.00 575.04,289.00 575.04,289.00              575.04,289.00 576.00,276.00 576.00,276.00              576.02,263.30 576.60,250.54 574.20,238.00              566.94,200.18 541.39,164.26 504.00,151.67              486.50,145.77 478.68,143.79 460.00,144.00              437.62,144.27 411.27,154.85 394.00,168.80              394.00,168.80 372.00,190.04 372.00,190.04              372.00,190.04 356.00,197.86 356.00,197.86              356.00,197.86 321.00,219.43 321.00,219.43              290.14,240.89 260.86,264.97 233.00,290.17              233.00,290.17 203.00,318.17 203.00,318.17              203.00,318.17 156.72,367.00 156.72,367.00              153.90,370.21 142.61,381.79 141.96,385.00              140.44,392.55 151.28,392.99 156.00,393.00              156.00,393.00 360.00,393.00 360.00,393.00              360.00,393.00 354.87,414.00 354.87,414.00              354.87,414.00 348.00,446.00 348.00,446.00              342.65,473.19 336.32,516.72 336.00,544.00              336.00,544.00 335.00,557.00 335.00,557.00              335.00,557.00 336.04,570.00 336.04,570.00              336.04,570.00 336.04,579.00 336.04,579.00              337.88,596.95 341.83,614.27 348.60,631.00              360.90,661.35 384.23,688.57 411.00,707.12              419.28,712.85 428.00,718.22 437.00,722.75              444.28,726.42 449.83,726.96 450.00,736.00              450.24,749.46 452.38,758.48 457.45,771.00              458.99,774.80 465.42,785.45 465.50,788.00              465.62,791.82 455.94,805.07 453.33,809.00              453.33,809.00 440.93,828.00 440.93,828.00              436.92,834.03 435.62,837.85 428.00,838.00              428.00,838.00 393.00,838.00 393.00,838.00              389.07,838.01 383.36,837.87 380.04,840.08              374.86,843.41 375.05,849.68 380.04,852.91              383.59,855.14 388.03,854.99 392.00,855.00              392.00,855.00 472.00,855.00 472.00,855.00              479.28,855.00 494.63,857.14 497.16,848.00              498.58,842.81 493.19,839.79 489.00,838.82              480.05,836.77 462.41,839.54 456.00,837.00              456.00,837.00 480.00,837.00 480.00,837.00              484.10,837.00 489.30,836.55 492.98,838.45              498.83,841.47 501.24,848.76 495.77,853.35              492.36,856.21 488.16,855.99 484.00,856.00              484.00,856.00 391.00,856.00 391.00,856.00              387.02,855.99 382.61,856.14 379.08,853.91              373.39,850.28 373.37,842.54 379.08,838.85              382.26,836.77 386.34,837.01 390.00,837.00              390.00,837.00 425.00,837.00 425.00,837.00              427.37,837.00 430.61,837.22 432.68,835.98              435.05,834.55 438.66,828.51 440.33,826.00              440.33,826.00 454.67,804.00 454.67,804.00              456.50,801.23 462.44,792.62 463.25,790.00              464.59,785.62 457.91,775.57 456.01,771.00              451.90,761.09 446.51,740.35 449.00,730.00              431.99,722.78 413.36,711.80 399.00,700.20              387.58,690.97 377.57,680.68 368.65,669.00              343.72,636.34 333.53,595.58 334.00,555.00              334.00,555.00 335.00,536.00 335.00,536.00              335.00,536.00 335.91,526.00 335.91,526.00              335.91,526.00 340.73,482.00 340.73,482.00              344.25,457.60 351.41,416.77 359.00,393.89 Z            M 447.00,170.42            C 488.84,165.32 538.88,195.20 554.55,234.00              560.32,248.30 559.02,262.91 559.00,278.00              559.00,278.00 558.09,290.00 558.09,290.00              558.09,290.00 556.09,317.00 556.09,317.00              555.86,320.25 555.65,330.16 553.98,332.57              551.87,335.61 544.63,335.02 541.00,335.59              528.83,337.49 520.25,340.31 509.00,345.15              489.13,353.71 480.56,365.82 459.00,375.69              451.31,379.22 437.34,384.00 429.00,385.00              429.00,385.00 419.00,385.00 419.00,385.00              419.00,385.00 386.00,386.00 386.00,386.00              383.89,385.96 381.43,386.07 379.85,384.40              377.90,382.33 376.29,366.70 375.85,363.00              375.85,363.00 367.91,297.00 367.91,297.00              367.91,297.00 366.96,287.00 366.96,287.00              366.96,287.00 366.96,277.00 366.96,277.00              366.96,277.00 366.00,267.00 366.00,267.00              365.93,260.27 367.33,243.42 368.90,237.00              374.42,214.39 390.55,192.47 411.00,181.31              422.80,174.87 433.92,172.40 447.00,170.42 Z            M 554.00,333.00            C 554.00,333.00 555.83,310.00 555.83,310.00              555.83,310.00 557.09,287.00 557.09,287.00              558.58,265.15 560.27,244.95 549.14,225.00              541.79,211.82 532.90,203.16 521.00,194.13              495.26,174.60 464.67,166.17 433.00,174.13              419.03,177.64 406.83,183.49 396.00,193.17              389.26,199.20 382.65,208.05 378.31,216.00              373.78,224.30 369.11,237.57 368.04,247.00              368.04,247.00 368.04,256.00 368.04,256.00              368.04,256.00 367.01,268.00 367.01,268.00              367.01,268.00 368.00,286.00 368.00,286.00              368.00,286.00 368.91,296.00 368.91,296.00              368.91,296.00 380.00,385.00 380.00,385.00              380.00,385.00 403.00,385.00 403.00,385.00              403.00,385.00 420.00,384.00 420.00,384.00              431.22,383.98 441.56,381.70 452.00,377.55              477.95,367.25 481.57,358.37 502.00,347.31              517.64,338.84 536.35,334.43 554.00,333.00 Z            M 457.00,214.51            C 462.41,214.14 467.80,215.31 471.81,219.21              482.26,229.37 476.65,247.13 462.00,249.10              443.94,251.54 436.93,231.24 446.53,220.18              449.55,216.70 452.66,215.50 457.00,214.51 Z            M 455.00,216.39            C 436.67,222.30 441.32,247.09 458.00,247.96              477.80,248.99 480.80,226.03 468.91,218.15              464.84,215.45 459.62,215.76 455.00,216.39 Z            M 352.00,219.00            C 352.00,219.00 353.00,220.00 353.00,220.00              310.18,248.55 277.40,272.42 239.00,307.17              239.00,307.17 204.00,342.00 204.00,342.00              199.33,346.70 195.38,352.12 190.00,356.00              193.47,349.53 198.02,346.25 202.91,341.00              202.91,341.00 233.00,310.91 233.00,310.91              270.41,276.06 309.26,246.92 352.00,219.00 Z            M 354.00,220.00            C 355.11,223.97 353.39,227.13 352.50,231.00              352.50,231.00 350.09,247.00 350.09,247.00              348.98,262.90 349.00,273.09 350.09,289.00              350.09,289.00 351.00,303.00 351.00,303.00              351.00,303.00 319.00,306.80 319.00,306.80              295.25,311.46 269.78,320.72 248.00,331.26              248.00,331.26 207.00,351.25 207.00,351.25              202.62,353.43 194.70,358.63 190.00,358.00              224.88,341.33 260.78,321.05 298.00,310.43              315.68,305.38 331.83,303.47 350.00,302.00              350.00,302.00 349.09,291.00 349.09,291.00              349.09,291.00 348.00,261.00 348.00,261.00              348.02,246.33 350.82,234.10 354.00,220.00 Z            M 196.00,376.00            C 199.83,371.65 203.92,370.30 209.00,367.75              209.00,367.75 233.00,355.75 233.00,355.75              270.63,336.99 310.28,320.00 353.00,320.00              353.00,320.00 358.13,358.00 358.13,358.00              358.79,362.76 360.68,370.64 359.00,375.00              359.00,375.00 352.00,321.00 352.00,321.00              307.50,321.00 266.14,341.41 227.00,360.36              227.00,360.36 196.00,376.00 196.00,376.00 Z            M 717.00,599.00            C 687.33,586.22 639.77,557.58 612.00,539.69              577.00,517.15 541.60,492.64 516.37,459.00              503.82,442.26 494.70,423.90 488.34,404.00              486.65,398.69 482.52,387.96 485.60,383.00              488.11,378.96 494.11,374.65 498.00,371.86              509.58,363.56 519.54,359.20 533.00,354.84              537.74,353.30 548.27,350.36 552.79,353.02              556.17,355.02 562.05,368.78 564.42,373.00              564.42,373.00 595.81,426.00 595.81,426.00              615.98,458.49 652.89,508.42 676.47,540.00              676.47,540.00 703.37,576.00 703.37,576.00              707.22,581.19 715.64,591.77 718.00,597.00              713.36,593.14 705.15,581.38 701.29,576.00              701.29,576.00 677.53,544.00 677.53,544.00              647.51,503.81 617.85,463.19 590.69,421.00              590.69,421.00 562.76,373.00 562.76,373.00              560.77,369.10 554.22,355.08 550.79,353.60              546.83,351.89 539.02,354.51 535.00,355.72              520.34,360.13 510.49,364.72 498.00,373.74              494.19,376.50 486.13,382.13 485.61,387.00              485.35,389.47 488.54,400.07 489.43,403.00              493.97,417.81 501.50,434.08 510.00,447.00              542.90,496.98 604.90,534.97 656.00,564.99              656.00,564.99 698.00,588.14 698.00,588.14              703.83,591.37 712.46,594.47 717.00,599.00 Z            M 359.00,376.00            C 359.00,376.00 360.00,377.00 360.00,377.00              353.23,378.92 329.53,378.00 321.00,378.00              321.00,378.00 242.00,378.00 242.00,378.00              242.00,378.00 212.00,378.00 212.00,378.00              207.46,378.00 201.13,378.64 197.00,377.00              197.00,377.00 307.00,377.00 307.00,377.00              307.00,377.00 340.00,377.00 340.00,377.00              340.00,377.00 359.00,376.00 359.00,376.00 Z            M 449.00,396.00            C 449.00,396.00 450.00,396.00 450.00,396.00              450.00,396.00 449.00,397.00 449.00,397.00              449.00,397.00 449.00,396.00 449.00,396.00 Z            M 388.00,465.00            C 381.15,469.10 376.36,472.31 368.00,470.48              365.72,469.99 362.38,469.00 361.31,466.73              360.15,464.27 362.40,454.07 363.00,451.00              363.00,451.00 369.21,420.00 369.21,420.00              369.21,420.00 372.85,405.15 372.85,405.15              374.75,401.36 378.34,402.01 382.00,402.00              382.00,402.00 416.00,402.00 416.00,402.00              420.63,401.98 430.45,400.92 435.00,400.00              439.10,399.17 443.92,397.18 448.00,398.00              438.27,400.82 428.16,402.98 418.00,403.00              418.00,403.00 374.00,403.00 374.00,403.00              374.00,403.00 367.00,437.00 367.00,437.00              367.00,437.00 361.00,467.06 361.00,467.06              370.14,469.46 371.49,471.89 381.00,467.06              382.68,466.27 386.48,463.74 388.18,465.70              390.66,468.57 384.01,473.15 382.00,474.12              375.72,477.64 367.04,477.98 361.00,474.12              372.20,476.11 382.04,477.56 388.00,465.00 Z            M 450.00,398.00            C 450.58,402.34 447.48,406.35 445.42,410.00              445.42,410.00 436.72,428.00 436.72,428.00              429.38,445.14 423.22,469.33 423.00,488.00              421.95,578.19 500.84,648.63 572.00,691.55              572.00,691.55 620.00,716.69 620.00,716.69              620.00,716.69 645.00,728.00 645.00,728.00              635.93,725.93 626.47,721.19 618.00,717.31              601.47,709.74 585.59,701.37 570.00,692.00              497.07,648.15 420.93,578.86 422.00,487.00              422.25,466.36 428.50,442.79 436.86,424.00              436.86,424.00 450.00,398.00 450.00,398.00 Z            M 468.00,403.00            C 467.82,406.74 465.11,409.85 463.20,413.00              463.20,413.00 454.31,430.00 454.31,430.00              447.32,445.27 441.20,467.17 441.00,484.00              441.00,484.00 441.00,496.00 441.00,496.00              441.06,536.12 467.53,578.54 493.91,607.00              526.28,641.92 565.73,669.93 608.00,691.74              623.68,699.83 644.32,708.37 661.00,714.31              667.34,716.56 683.82,720.44 688.00,724.00              688.00,724.00 674.00,719.98 674.00,719.98              674.00,719.98 637.00,706.57 637.00,706.57              576.73,680.86 515.51,640.85 475.87,588.00              457.81,563.91 440.05,528.74 440.00,498.00              440.00,498.00 440.00,484.00 440.00,484.00              440.04,456.37 452.22,425.30 468.00,403.00 Z            M 470.00,404.00            C 472.96,408.13 473.99,413.30 475.81,418.00              475.81,418.00 485.95,441.00 485.95,441.00              494.57,458.72 508.12,477.08 522.00,491.00              543.52,512.59 581.08,537.29 607.00,554.81              607.00,554.81 629.00,568.58 629.00,568.58              632.23,570.59 637.66,573.52 640.08,576.24              645.02,581.79 652.92,599.56 656.01,607.00              663.88,625.94 670.79,645.27 676.42,665.00              676.42,665.00 686.80,706.00 686.80,706.00              687.72,710.60 690.22,718.69 689.00,723.00              689.00,723.00 684.12,700.00 684.12,700.00              677.44,671.83 669.36,643.91 658.60,617.00              655.01,608.01 644.62,583.49 638.67,577.18              635.52,573.84 624.47,567.51 620.00,564.80              620.00,564.80 588.00,543.98 588.00,543.98              570.94,532.22 544.91,514.30 530.00,500.83              506.74,479.83 492.48,459.35 479.70,431.00              476.06,422.95 471.96,412.58 470.00,404.00 Z            M 405.03,437.05            C 413.97,438.58 404.53,448.62 398.00,450.89              391.47,453.16 377.04,450.54 374.84,442.97              374.17,440.62 375.25,437.60 378.11,437.90              381.09,438.21 384.55,442.84 390.00,443.62              396.81,444.60 399.65,439.38 405.03,437.05 Z            M 408.00,438.00            C 399.76,439.33 398.28,445.83 390.00,444.77              383.94,444.00 382.82,439.98 376.00,438.00              374.76,445.64 380.44,448.50 387.00,450.10              396.23,452.36 406.57,448.15 408.00,438.00 Z            M 359.00,474.00            C 359.00,474.00 357.00,501.00 357.00,501.00              361.35,501.00 363.84,501.30 368.00,499.60              369.66,498.93 372.61,497.03 374.38,498.15              377.25,499.98 373.65,504.07 371.94,505.28              367.87,508.14 360.56,508.81 356.00,507.00              363.79,506.99 372.33,506.87 375.00,498.00              366.34,501.17 365.97,503.41 356.00,502.00              356.00,502.00 359.00,474.00 359.00,474.00 Z            M 354.00,509.00            C 356.26,514.69 353.54,527.38 353.09,534.00              353.09,534.00 352.00,561.00 352.00,561.00              352.00,561.00 352.96,574.00 352.96,574.00              353.19,579.01 354.01,591.54 355.42,595.95              356.79,600.26 364.40,605.79 369.00,604.24              372.34,603.12 375.08,599.40 377.94,598.74              380.84,598.08 382.09,600.49 381.34,603.02              378.77,611.71 368.20,612.00 361.00,612.00              366.23,627.08 371.18,638.80 380.44,652.00              418.38,706.13 494.26,736.25 559.00,737.00              559.00,737.00 580.00,738.00 580.00,738.00              580.00,738.00 595.00,737.00 595.00,737.00              607.04,736.98 617.18,735.96 629.00,733.60              633.60,732.68 641.92,729.66 646.00,731.00              624.99,735.23 619.57,737.77 597.00,738.00              597.00,738.00 580.00,739.00 580.00,739.00              580.00,739.00 556.00,738.00 556.00,738.00              511.94,737.54 460.37,721.22 424.00,696.50              395.99,677.47 367.72,645.84 360.00,612.00              367.19,609.96 380.95,610.67 380.00,599.00              376.97,601.09 373.43,604.29 370.00,605.35              366.85,606.32 363.84,605.95 361.00,604.30              353.02,599.65 352.97,591.42 352.13,583.00              350.54,566.01 350.93,549.00 352.13,532.00              352.13,532.00 354.00,509.00 354.00,509.00 Z            M 401.96,549.07            C 405.86,548.23 407.40,549.97 406.26,554.00              405.27,557.52 402.07,560.68 398.99,562.47              392.18,566.43 379.24,565.52 376.66,557.00              376.02,554.90 376.73,552.78 379.15,552.53              382.13,552.23 385.81,555.62 390.00,555.71              394.77,555.81 398.20,551.49 401.96,549.07 Z            M 377.00,553.00            C 378.03,565.77 394.14,566.69 402.06,558.89              407.62,553.13 405.51,548.79 402.06,550.16              400.11,551.05 397.72,554.93 393.00,556.35              386.90,558.18 383.98,553.96 377.00,553.00 Z            M 420.11,583.99            C 428.52,582.52 425.03,591.64 420.11,594.77              415.63,597.44 407.63,597.86 403.11,595.43              398.66,593.04 398.88,588.76 402.15,587.78              404.72,587.01 408.33,589.31 412.00,588.66              415.12,588.11 417.63,585.62 420.11,583.99 Z            M 424.00,584.00            C 424.00,584.00 413.00,589.56 413.00,589.56              413.00,589.56 401.00,588.00 401.00,588.00              401.17,590.06 401.10,591.83 402.60,593.49              406.64,597.97 425.04,597.61 424.00,584.00 Z            M 670.00,593.00            C 670.00,593.00 710.00,614.55 710.00,614.55              717.37,620.09 735.44,640.22 742.28,648.00              759.93,668.05 777.37,688.41 793.15,710.00              793.15,710.00 815.88,741.00 815.88,741.00              818.67,744.78 823.77,750.28 824.00,755.00              794.28,713.02 763.16,672.65 728.09,635.00              728.09,635.00 713.00,619.04 713.00,619.04              703.02,609.63 677.44,600.45 670.00,593.00 Z            M 668.00,595.00            C 674.11,600.38 678.76,615.10 681.68,623.00              688.07,640.28 698.58,676.01 702.58,694.00              702.58,694.00 707.58,716.00 707.58,716.00              708.23,718.95 708.91,724.46 710.73,726.70              712.79,729.23 716.96,729.86 720.00,730.63              720.00,730.63 740.00,735.87 740.00,735.87              740.00,735.87 794.00,749.35 794.00,749.35              800.12,750.75 818.55,754.40 823.00,757.00              823.00,757.00 791.00,749.87 791.00,749.87              791.00,749.87 739.00,736.87 739.00,736.87              739.00,736.87 718.00,731.42 718.00,731.42              715.15,730.63 711.70,730.12 709.73,727.70              707.87,725.41 706.85,718.20 706.12,715.00              706.12,715.00 698.63,684.00 698.63,684.00              693.43,663.21 685.45,635.74 677.55,616.00              677.55,616.00 668.00,595.00 668.00,595.00 Z            M 417.98,632.75            C 423.01,632.34 424.11,635.91 421.26,639.47              418.79,642.57 412.85,644.49 409.00,644.81              406.20,645.05 401.59,644.46 399.20,642.86              396.55,641.05 396.01,637.92 399.20,636.22              401.96,634.79 405.52,636.56 409.00,636.22              412.13,635.84 415.07,633.91 417.98,632.75 Z            M 421.00,633.00            C 415.44,634.39 416.02,635.00 412.00,636.45              405.75,638.69 400.32,634.57 398.62,638.40              397.15,641.73 401.70,643.10 404.00,643.53              410.97,644.82 422.88,642.20 421.00,633.00 Z            M 755.00,635.00            C 766.27,637.11 786.02,648.36 796.00,654.58              828.88,675.06 857.47,704.20 883.05,733.00              883.05,733.00 907.37,763.00 907.37,763.00              910.03,766.54 915.08,771.49 915.00,776.00              903.29,758.50 882.59,734.57 868.09,719.00              849.46,699.00 829.45,679.50 807.00,663.72              797.86,657.29 784.99,649.13 775.00,644.26              775.00,644.26 755.00,635.00 755.00,635.00 Z            M 755.00,638.00            C 761.52,641.35 774.45,657.70 779.87,664.00              798.25,685.38 814.34,708.01 830.58,731.00              830.58,731.00 850.32,760.70 850.32,760.70              853.89,764.02 863.09,765.24 868.00,766.35              868.00,766.35 896.00,772.40 896.00,772.40              900.76,773.36 909.99,774.95 914.00,777.00              914.00,777.00 870.00,768.00 870.00,768.00              866.19,767.21 852.86,764.82 850.33,763.07              847.93,761.41 841.04,750.13 839.05,747.00              839.05,747.00 816.98,714.00 816.98,714.00              805.68,697.64 791.06,679.46 778.00,664.42              778.00,664.42 755.00,638.00 755.00,638.00 Z            M 465.00,736.00            C 465.00,736.00 485.00,742.58 485.00,742.58              487.15,743.22 490.80,743.97 491.76,746.28              492.79,748.75 490.28,752.02 489.00,754.00              485.54,759.31 481.80,765.94 477.00,770.00              477.00,770.00 492.00,746.00 492.00,746.00              484.89,743.92 470.49,740.24 465.00,736.00 Z            M 464.00,738.00            C 464.00,738.00 471.86,760.00 471.86,760.00              471.86,760.00 475.00,770.00 475.00,770.00              468.03,756.76 467.51,751.89 464.00,738.00 Z            M 454.00,837.00            C 454.00,837.00 468.67,814.00 468.67,814.00              468.67,814.00 494.67,775.00 494.67,775.00              494.67,775.00 505.33,759.00 505.33,759.00              506.68,756.99 509.60,752.17 511.52,750.91              513.51,749.80 515.87,750.42 518.00,750.91              518.00,750.91 537.70,754.31 537.70,754.31              540.81,756.27 541.89,764.41 543.03,768.00              547.80,783.07 552.13,785.97 558.00,798.00              549.08,790.45 539.55,766.76 539.00,755.00              539.00,755.00 522.00,752.75 522.00,752.75              522.00,752.75 513.17,752.19 513.17,752.19              513.17,752.19 507.08,759.00 507.08,759.00              507.08,759.00 496.67,775.00 496.67,775.00              496.67,775.00 469.33,816.00 469.33,816.00              469.33,816.00 454.00,837.00 454.00,837.00 Z            M 556.00,756.00            C 560.82,754.63 576.46,754.20 581.00,756.00              581.00,756.00 557.00,756.00 557.00,756.00              557.00,756.00 567.00,780.00 567.00,780.00              567.00,780.00 569.00,780.00 569.00,780.00              570.39,775.11 577.85,760.96 581.00,757.00              581.00,757.00 569.00,781.00 569.00,781.00              562.27,777.44 557.66,763.29 556.00,756.00 Z            M 557.00,799.00            C 557.56,803.29 554.59,806.44 552.45,810.00              552.45,810.00 541.42,828.00 541.42,828.00              540.02,830.27 537.55,834.85 535.62,836.41              532.36,839.03 527.24,837.68 523.89,842.22              519.94,847.58 524.68,852.90 530.00,854.43              532.28,855.09 535.59,855.00 538.00,855.00              538.00,855.00 627.00,855.00 627.00,855.00              631.25,854.99 636.27,855.14 639.77,852.30              644.28,848.66 643.74,842.22 637.98,839.43              634.81,837.90 630.46,838.01 627.00,838.00              627.00,838.00 580.00,838.00 580.00,838.00              574.59,838.00 562.49,838.78 558.00,837.00              558.00,837.00 595.00,837.00 595.00,837.00              595.00,837.00 630.00,837.00 630.00,837.00              633.56,837.05 638.64,837.28 641.44,839.72              646.68,844.28 644.70,851.58 638.98,854.55              635.83,856.19 632.44,855.99 629.00,856.00              629.00,856.00 535.00,856.00 535.00,856.00              528.06,855.91 519.88,853.95 521.24,845.00              522.60,836.11 531.36,838.69 535.22,834.69              535.22,834.69 543.40,822.00 543.40,822.00              543.40,822.00 557.00,799.00 557.00,799.00 Z" />
  <path
     style="fill:#000000;stroke-width:2.34655"
     d="m 608.80726,192.0304 c -26.9467,-0.77329 -52.79933,10.92977 -74.86094,25.51402 -20.34516,14.61645 -35.80634,35.45845 -59.49181,45.34691 -105.21023,60.17033 -192.99775,145.75975 -274.43716,234.45097 -4.18953,6.44315 -15.47404,13.79946 -11.19241,22.52051 8.00485,7.13928 20.50526,2.46922 30.26027,4.23298 86.23009,1.28398 172.48007,-0.0203 258.70774,1.43112 -17.58206,78.35038 -34.58532,158.29943 -30.92857,239.06864 2.45604,62.12362 31.60619,122.31666 79.16391,162.44203 20.70912,19.22133 46.269,31.59399 70.25041,45.9021 4.21559,21.09619 4.96158,43.75832 16.34537,62.98292 4.07585,7.5237 9.21807,17.1453 1.45963,24.4273 -11.6605,18.1093 -22.10141,37.6038 -36.34204,53.7115 -23.42008,4.8227 -48.45796,-0.2899 -71.84303,5.3163 -10.12245,5.3702 -4.5045,20.6515 6.01873,20.7092 46.09261,1.6246 92.33123,0.6167 138.4414,-0.5285 9.53841,2.0878 19.17019,-10.7102 11.17134,-17.9131 -16.08622,-9.4032 -36.05011,-1.998 -53.17639,-7.7033 23.74605,-37.5723 48.26446,-74.8428 74.3733,-110.6938 9.17268,-2.8437 19.68385,1.9363 29.04002,3.4613 11.53469,2.4837 8.34931,16.9884 13.95131,24.7261 3.86821,13.1773 16.69499,24.6712 14.2055,39.0521 -7.43604,15.1445 -16.22893,30.1664 -27.57711,42.7723 -6.96437,4.1897 -20.99167,10.3784 -15.37934,20.8457 7.69522,10.0252 22.66789,5.0464 33.43522,6.7651 39.50348,-0.4819 79.22884,1.9598 118.59864,-1.6671 12.52088,0.044 12.27038,-20.8287 -0.007,-21.0196 -34.94718,-4.3307 -70.53286,1.1001 -105.33658,-4.2353 18.91256,-32.7811 37.72258,-66.2223 55.4884,-99.8498 8.43782,-11.0949 24.80954,-7.2857 36.75832,-11.1029 24.16634,-2.9512 46.69411,-13.1742 70.42652,-17.54492 77.48356,19.68922 154.82379,40.11602 233.04849,56.77332 36.6918,7.3368 73.1853,16.9171 110.3542,21.1941 10.3163,-1.0608 12.7971,-14.4787 6.295,-21.4799 -38.13,-55.17097 -82.4357,-106.43036 -132.6443,-150.98014 -32.6755,-29.12941 -70.0958,-53.01188 -111.4222,-67.81888 -11.9358,-5.08139 -16.54919,-19.65475 -25.39156,-28.74609 C 919.55439,704.3568 850.04386,615.51109 793.00816,518.76817 781.98914,497.72775 768.58827,476.87909 764.4319,453.24398 c 2.02686,-44.26397 7.05754,-88.9772 2.83951,-133.30636 -9.19476,-53.17645 -45.74567,-102.76702 -97.93677,-120.16519 -19.19193,-7.78747 -40.13869,-8.04024 -60.52738,-7.74203 z m 0.73316,36.16362 c 43.94992,1.00097 87.65389,24.86253 114.15185,59.97918 15.36469,19.57624 22.28819,44.55796 20.41229,69.27212 -1.27487,28.05173 -2.43152,56.7163 -6.50638,84.45341 -16.0455,6.96231 -34.81114,5.83103 -50.8405,13.63339 -37.62096,15.2615 -66.83645,48.17194 -108.14987,54.79957 -22.5893,1.85593 -45.51473,2.92134 -68.01012,2.19607 -7.35585,-1.97693 -3.76453,-13.03329 -6.3878,-18.3858 -7.60194,-58.3488 -18.36098,-117.67446 -11.17059,-176.22599 9.58529,-44.42691 48.02776,-80.28953 93.01265,-87.42357 7.9341,-1.4936 15.60167,-2.2835 23.48847,-2.29838 z m -139.4269,66.9496 c -2.4232,20.70672 -5.42108,41.91409 -4.99936,63.11653 0.0234,14.72181 -0.6882,29.60613 1.83824,44.17743 -31.68864,3.63239 -63.46231,8.26563 -93.36388,19.93176 -40.69444,14.09958 -78.63207,37.16858 -117.89923,52.85925 20.05277,-26.26164 45.66306,-48.06214 69.34319,-71.10383 44.25938,-40.25651 92.03024,-77.27883 143.00431,-108.16272 0.40707,0.14349 1.69654,-1.18372 2.07673,-0.81842 z m -5.2174,133.49681 c 7.89227,-0.51137 4.97856,11.6765 6.98383,16.47941 2.01601,18.78548 5.88086,37.4969 5.74251,56.34913 -70.25469,1.27167 -140.93799,1.97711 -211.17104,0.2728 -2.84178,-1.31283 5.72574,-4.63856 7.71095,-6.30025 52.68684,-27.28367 106.5281,-56.16329 165.86706,-65.32869 8.23967,-1.16134 16.55712,-1.42058 24.86669,-1.4724 z m 265.20336,42.34607 c 12.89452,1.66851 14.93168,18.14485 21.63627,27.01248 33.79454,60.33708 71.35927,118.49389 112.95637,173.7541 29.07644,41.10328 61.35846,80.24423 89.19899,121.99507 3.40324,6.24199 -6.25814,-0.95034 -8.61777,-1.54998 C 875.08142,756.675 807.64821,715.4115 745.12788,667.61981 698.32813,630.0725 659.96053,578.63761 647.6887,519.09895 c -0.34485,-14.32581 16.13324,-20.60227 26.04922,-27.58321 17.48173,-9.47975 36.21346,-19.05874 56.36156,-20.52924 z m -131.55309,60.19087 c -10.12568,25.9459 -24.83454,50.279 -30.1176,78.00499 -15.78747,64.64335 5.0795,133.74924 45.45169,185.27152 52.59526,69.65145 126.2931,120.17565 204.07359,158.0257 12.96096,7.59198 28.72568,11.60396 40.3464,20.85226 -13.20176,4.60145 -30.22624,5.89481 -44.84904,8.01705 -57.45375,4.33822 -116.70645,2.90995 -171.34498,-17.26512 -61.92839,-20.17038 -120.5399,-60.69708 -150.36978,-120.09529 -3.08132,-8.4344 -9.0745,-17.42182 -8.79453,-26.59161 7.70504,-3.93627 21.14636,-2.81564 24.35801,-12.48763 -1.80979,-8.36653 -9.99558,-0.37718 -14.73484,0.33419 -12.03684,3.66789 -19.55625,-8.16326 -20.09886,-18.46884 -4.84228,-34.30398 -2.89576,-69.58079 1.27877,-103.83276 1.01184,-10.6822 14.47179,-3.49139 20.40236,-9.12871 4.03422,-1.29539 8.76953,-9.16909 1.70844,-8.96504 -6.3921,2.3068 -13.28153,2.37341 -19.91131,2.98721 2.29737,-10.95685 1.67578,-22.40506 4.37851,-33.24463 9.7687,-1.31773 23.69761,3.69515 30.64957,-5.39469 -0.55319,-7.49407 -11.21569,-2.47943 -15.91814,-3.5601 -5.90904,0.66528 -14.76503,-2.63123 -11.83971,-10.14151 4.88927,-25.2203 7.59711,-51.31164 16.42282,-75.50201 6.0523,-4.71054 16.14272,-1.77958 23.48133,-2.97286 25.32289,0.077 50.95156,0.28768 75.59781,-6.43889 z m 26.67686,9.07074 c 10.97982,20.90481 17.49819,44.12763 30.4893,64.11925 27.54299,49.30267 74.52121,82.62334 119.90002,114.10622 25.12798,18.71373 53.44723,32.9669 77.68536,52.80572 17.67849,27.07136 27.63289,58.60489 38.80301,88.77394 10.43825,32.65757 19.3367,65.88462 25.31282,99.66566 1.01143,6.16426 -8.05415,1.31469 -11.14746,1.12191 C 805.2589,928.6284 708.92586,873.53575 641.57158,790.26009 604.10505,743.97505 578.71719,682.89282 590.22587,622.96239 c 5.01867,-29.19958 16.92885,-57.56416 33.42194,-82.17209 0.47972,-0.30066 1.0202,-1.89101 1.57544,-0.54219 z m 269.92627,253.03626 c 24.63789,14.01448 53.08113,24.21611 71.07844,47.39363 47.27784,50.18754 90.60504,104.15583 128.75074,161.6223 3.6165,3.5952 1.1454,6.7963 -3.2498,4.3682 -47.2075,-10.71083 -94.66718,-21.17632 -140.78748,-35.93512 -7.06533,-4.01163 -5.88367,-14.92691 -9.04368,-21.72277 -12.01795,-51.13829 -25.73537,-102.12038 -46.5709,-150.44747 0.12665,-0.88422 -2.97122,-7.11954 -0.17732,-5.27877 z m 116.93758,56.50802 c 68.4165,26.68678 122.1464,80.42288 169.2774,135.12537 12.4572,15.65634 26.7578,30.33424 36.3489,47.98094 -1.6385,3.7169 -10.1509,-1.8322 -13.8755,-1.1629 -22.4968,-4.914 -45.5184,-8.7643 -67.5532,-15.0554 -28.4853,-35.9093 -51.0111,-76.28522 -80.8176,-111.2619 -14.4389,-18.59415 -31.4727,-35.2166 -44.819,-54.43942 0.6085,-0.50994 0.1492,-2.29093 1.439,-1.18669 z M 765.26055,1008.6054 c 3.45259,-0.146 9.14424,-0.2731 4.99913,4.9378 -3.72585,8.153 -7.85697,19.4773 -13.38445,24.8422 -6.39904,-8.4761 -11.90951,-18.4944 -12.83204,-29.2344 7.11293,-0.1863 14.09859,-0.5264 21.21736,-0.5456 z"
     id="path1222"
     transform="scale(0.75000112)" />
  <path
     style="fill:#000000;stroke-width:0.293319"
     d="m 537.50685,731.25506 c -3.59487,0.21056 -5.70127,3.62129 -8.43903,5.50084 -3.17365,2.6559 -7.44387,4.42786 -11.60399,3.31799 -4.69439,-1.2094 -8.96618,-3.97211 -13.84184,-4.46249 -2.14815,0.0187 -3.24971,2.47596 -2.52748,4.31945 1.10721,6.00955 5.75497,11.11702 11.61545,12.8262 3.94916,1.18959 8.22435,1.12217 12.25355,0.39187 7.26612,-1.54698 14.19489,-6.35468 16.9909,-13.39899 1.09129,-2.73912 0.85262,-6.64702 -2.15515,-8.03537 -0.71258,-0.33648 -1.50709,-0.47948 -2.29241,-0.4595 z"
     id="path1224"
     transform="scale(0.75000112)" />
  <path
     style="fill:#000000;stroke-width:0.293319"
     d="m 563.52258,777.47963 c -4.45937,2.10641 -8.83937,4.38047 -13.25914,6.56947 -4.97589,-0.58052 -9.98279,-1.36195 -14.85846,-1.89045 -2.09516,0.18803 -2.8908,2.54354 -2.46164,4.34654 0.13709,3.52223 2.18313,6.93537 5.50213,8.31073 6.09663,2.72951 13.32899,2.29014 19.42091,-0.22654 5.83777,-2.41546 10.09069,-8.75708 9.31007,-15.13746 -0.35834,-1.57789 -2.14796,-2.4967 -3.65387,-1.97229 z"
     id="path1226"
     transform="scale(0.75000112)" />
  <path
     style="fill:#000000;stroke-width:0.414816"
     d="m 560.22724,842.37447 c -5.86865,0.94591 -10.72485,5.50975 -16.87468,5.15832 -3.81497,0.21803 -7.95967,-1.45971 -11.50841,0.47502 -2.69537,1.87413 -3.69793,6.22893 -0.9856,8.55761 4.95648,4.25804 12.0389,4.13519 18.14121,3.23532 5.79212,-0.94965 12.31541,-4.04485 14.03722,-10.13217 0.6791,-2.6294 1.1577,-7.32579 -2.80974,-7.2941 z"
     id="path1230"
     transform="scale(0.75000112)" />
  <path
     style="fill:#fafafa;stroke-width:1.65926;fill-opacity:1"
     d="m 611.33477,286.83052 c -16.99446,-0.92588 -27.22869,21.03184 -18.31362,34.53907 6.48522,11.52884 22.24607,13.66904 32.80055,6.64306 11.47024,-6.10037 12.56475,-23.18197 5.50975,-32.9187 -4.51898,-6.58896 -12.30679,-8.90476 -19.99668,-8.26343 z"
     id="path1232"
     transform="scale(0.75000112)" />
  <path
     style="fill:#fafafa;fill-opacity:1;stroke-width:1.008"
     d="m 462.42973,742.66102 11.07319,34.37697 19.20491,-25.51827 z"
     id="path2867" />
  <path
     style="fill:#000000;fill-opacity:1;stroke-width:2.34655"
     d="m 610.86692,285.47271 c -19.5627,-1.50272 -31.05639,26.76621 -16.96843,40.08178 13.0412,16.80261 45.08068,6.18451 43.6828,-15.82606 0.49998,-13.67234 -11.44576,-27.60786 -25.94669,-24.27239 z"
     id="path2942"
     transform="scale(0.75000112)" />
  <path
     style="fill:#000000;fill-opacity:1;stroke-width:0.414816"
     d="m 542.44351,582.44833 c -6.42482,1.00667 -10.93142,6.36108 -16.95547,8.33094 -4.49153,1.0621 -9.24573,-0.18326 -12.88711,-2.95312 -3.19843,-2.07283 -6.42007,-4.49463 -10.1954,-5.33201 -2.70063,-0.21294 -3.67796,2.85024 -3.17504,5.02509 0.19566,5.76805 4.68712,10.37731 9.84824,12.36682 9.08219,3.88745 20.52136,4.28429 28.70198,-1.89044 3.92436,-3.22365 7.48005,-7.74986 7.79042,-12.97806 0.0986,-1.60654 -1.62328,-2.81273 -3.12762,-2.56922 z"
     id="path2944"
     transform="scale(0.75000112)" />
  <path
     style="fill:#000000;fill-opacity:1;stroke-width:0.051852"
     d="m 515.21738,619.16606 c -0.86793,0.1327 -1.55801,0.71935 -2.30956,1.12587 -1.75478,1.04435 -3.53589,2.04718 -5.36042,2.96378 -1.09001,0.58932 -1.63178,1.99046 -1.23217,3.16191 0.22127,0.73793 0.79558,1.31464 1.46638,1.66743 0.44903,0.3147 0.39629,0.94558 0.68568,1.36852 0.59891,1.13134 2.07156,1.68257 3.26538,1.21896 0.85322,-0.2863 1.37942,-1.06221 2.00426,-1.66012 1.6982,-1.79078 3.14049,-3.82277 4.30133,-5.99899 0.53956,-1.1003 0.22055,-2.54628 -0.76341,-3.28705 -0.56899,-0.46469 -1.33314,-0.65635 -2.05747,-0.56031 z"
     id="path2946"
     transform="scale(0.75000112)" />
  <path
     style="fill:none;stroke-width:2.34655"
     d="m 618.29743,989.43752 c -5.22184,5.41656 2.02271,13.86088 2.46888,20.35458 3.56128,8.4977 4.14529,19.307 10.25744,26.2813 8.01865,-1.5433 10.97365,-12.2444 16.302,-17.7024 2.22854,-5.6641 11.76785,-12.3107 7.48313,-18.48848 -11.73476,-4.38633 -24.11881,-8.72795 -36.51145,-10.445 z"
     id="path311"
     transform="scale(0.75000112)" />
  <path
     style="fill:#000000;stroke-width:0.14666;fill-opacity:0"
     d="m 615.72561,987.79302 c -1.46683,0.5568 -2.11982,2.35543 -1.48882,3.76264 4.82708,15.08034 9.65117,30.16224 14.58556,45.20784 0.53044,1.576 2.6081,2.3477 3.99056,1.3778 1.08811,-0.7601 1.68873,-2.0333 2.55083,-3.0243 7.89966,-10.479 15.81698,-20.9456 23.641,-31.4809 0.87333,-1.3124 0.34952,-3.2406 -1.07197,-3.92184 -2.94219,-1.10091 -6.00249,-1.86936 -9.00204,-2.80251 -10.51696,-3.09206 -21.03577,-6.17893 -31.57128,-9.20696 -0.56531,-0.10476 -1.08187,-0.0762 -1.63384,0.0882 z"
     id="path867"
     transform="scale(0.75000112)" />
  <path
     style="fill:#000000;fill-opacity:0;stroke-width:0.14666"
     d="m 615.72561,987.79302 c -1.46683,0.5568 -2.11982,2.35543 -1.48882,3.76264 4.82708,15.08034 9.65117,30.16224 14.58556,45.20784 0.53044,1.576 2.6081,2.3477 3.99056,1.3778 1.08811,-0.7601 1.68873,-2.0333 2.55083,-3.0243 7.89966,-10.479 15.81698,-20.9456 23.641,-31.4809 0.87333,-1.3124 0.34952,-3.2406 -1.07197,-3.92184 -2.94219,-1.10091 -6.00249,-1.86936 -9.00204,-2.80251 -10.51696,-3.09206 -21.03577,-6.17893 -31.57128,-9.20696 -0.56531,-0.10476 -1.08187,-0.0762 -1.63384,0.0882 z"
     id="path1628"
     transform="scale(0.75000112)" />
  <path
     style="fill:#000000;fill-opacity:0;stroke-width:0.14666"
     d="m 615.72561,987.79302 c -1.46683,0.5568 -2.11982,2.35543 -1.48882,3.76264 4.82708,15.08034 9.65117,30.16224 14.58556,45.20784 0.53044,1.576 2.6081,2.3477 3.99056,1.3778 1.08811,-0.7601 1.68873,-2.0333 2.55083,-3.0243 7.89966,-10.479 15.81698,-20.9456 23.641,-31.4809 0.87333,-1.3124 0.34952,-3.2406 -1.07197,-3.92184 -2.94219,-1.10091 -6.00249,-1.86936 -9.00204,-2.80251 -10.51696,-3.09206 -21.03577,-6.17893 -31.57128,-9.20696 -0.56531,-0.10476 -1.08187,-0.0762 -1.63384,0.0882 z"
     id="path1630"
     transform="scale(0.75000112)" />
  <path
     style="fill:#000000;fill-opacity:0;stroke-width:0.14666"
     d="m 615.72561,987.79302 c -1.46683,0.5568 -2.11982,2.35543 -1.48882,3.76264 4.82708,15.08034 9.65117,30.16224 14.58556,45.20784 0.53044,1.576 2.6081,2.3477 3.99056,1.3778 1.08811,-0.7601 1.68873,-2.0333 2.55083,-3.0243 7.89966,-10.479 15.81698,-20.9456 23.641,-31.4809 0.87333,-1.3124 0.34952,-3.2406 -1.07197,-3.92184 -2.94219,-1.10091 -6.00249,-1.86936 -9.00204,-2.80251 -10.51696,-3.09206 -21.03577,-6.17893 -31.57128,-9.20696 -0.56531,-0.10476 -1.08187,-0.0762 -1.63384,0.0882 z"
     id="path1632"
     transform="scale(0.75000112)" />
</svg>
