<?xml version="1.0" encoding="UTF-8" standalone="no"?>
<svg
   width="6.94444in"
   height="6.94444in"
   viewBox="0 0 500 500"
   version="1.1"
   id="svg4069"
   sodipodi:docname="lindi.svg"
   inkscape:export-filename="lindi.svg"
   inkscape:export-xdpi="96"
   inkscape:export-ydpi="96"
   inkscape:version="1.2.2 (b0a8486541, 2022-12-01)"
   xmlns:inkscape="http://www.inkscape.org/namespaces/inkscape"
   xmlns:sodipodi="http://sodipodi.sourceforge.net/DTD/sodipodi-0.dtd"
   xmlns="http://www.w3.org/2000/svg"
   xmlns:svg="http://www.w3.org/2000/svg">
  <defs
     id="defs4073" />
  <sodipodi:namedview
     id="namedview4071"
     pagecolor="#ffffff"
     bordercolor="#000000"
     borderopacity="0.25"
     inkscape:showpageshadow="2"
     inkscape:pageopacity="0.0"
     inkscape:pagecheckerboard="0"
     inkscape:deskcolor="#d1d1d1"
     inkscape:document-units="in"
     showgrid="false"
     inkscape:zoom="4"
     inkscape:cx="616.75"
     inkscape:cy="226"
     inkscape:window-width="1920"
     inkscape:window-height="1011"
     inkscape:window-x="0"
     inkscape:window-y="0"
     inkscape:window-maximized="1"
     inkscape:current-layer="svg4069" />
  <path
     id="Seleção"
     fill="none"
     stroke="black"
     stroke-width="1"
     d="M 213.00,126.00            C 213.00,126.00 231.85,157.00 231.85,157.00              231.85,157.00 255.72,198.00 255.72,198.00              255.72,198.00 274.00,229.00 274.00,229.00              274.00,229.00 273.00,196.00 273.00,196.00              273.00,196.00 272.00,180.00 272.00,180.00              272.00,180.00 271.00,160.00 271.00,160.00              271.00,160.00 270.00,136.00 270.00,136.00              270.00,136.00 281.00,136.00 281.00,136.00              281.00,136.00 282.00,159.00 282.00,159.00              282.00,159.00 283.00,186.00 283.00,186.00              283.00,186.00 284.00,202.00 284.00,202.00              284.00,202.00 284.00,213.00 284.00,213.00              284.00,213.00 285.00,223.00 285.00,223.00              285.00,223.00 285.00,234.00 285.00,234.00              285.00,234.00 286.00,246.00 286.00,246.00              286.00,246.00 287.00,273.00 287.00,273.00              287.00,273.00 288.00,289.00 288.00,289.00              288.00,289.00 290.00,344.00 290.00,344.00              290.00,344.00 280.00,345.00 280.00,345.00              280.00,345.00 279.00,329.00 279.00,329.00              279.00,329.00 278.00,312.00 278.00,312.00              278.00,312.00 277.00,283.00 277.00,283.00              277.00,283.00 276.00,269.00 276.00,269.00              276.00,269.00 275.06,255.00 275.06,255.00              275.06,255.00 255.60,220.00 255.60,220.00              255.60,220.00 220.00,159.00 220.00,159.00              220.00,159.00 216.00,199.00 216.00,199.00              216.00,199.00 215.04,209.00 215.04,209.00              215.04,209.00 215.04,221.00 215.04,221.00              215.04,221.00 213.00,256.00 213.00,256.00              213.00,256.00 211.00,306.00 211.00,306.00              211.00,306.00 210.00,326.00 210.00,326.00              210.00,326.00 209.00,340.00 209.00,340.00              209.00,340.00 205.00,340.00 205.00,340.00              196.38,339.84 198.90,337.42 199.00,329.00              199.00,329.00 200.00,300.00 200.00,300.00              200.00,300.00 201.00,285.00 201.00,285.00              201.00,285.00 202.00,268.00 202.00,268.00              202.00,268.00 202.00,257.00 202.00,257.00              202.00,257.00 203.00,240.00 203.00,240.00              203.00,240.00 204.04,224.00 204.04,224.00              204.04,224.00 204.04,211.00 204.04,211.00              204.04,211.00 205.00,200.00 205.00,200.00              205.00,200.00 206.17,181.00 206.17,181.00              206.17,181.00 213.00,126.00 213.00,126.00 Z            M 57.00,133.00            C 57.00,133.00 68.00,134.00 68.00,134.00              68.00,134.00 67.00,157.00 67.00,157.00              67.00,157.00 65.00,248.00 65.00,248.00              65.00,248.00 64.00,265.00 64.00,265.00              64.00,265.00 64.00,280.00 64.00,280.00              64.00,280.00 63.00,296.00 63.00,296.00              63.00,296.00 63.00,315.00 63.00,315.00              62.96,318.05 61.56,324.27 63.61,326.40              65.46,328.32 69.52,328.00 72.00,328.00              72.00,328.00 118.00,328.00 118.00,328.00              118.00,328.00 118.00,338.00 118.00,338.00              118.00,338.00 62.00,338.00 62.00,338.00              62.00,338.00 62.00,345.00 62.00,345.00              53.17,345.00 51.28,345.83 51.00,338.00              51.00,338.00 39.00,338.00 39.00,338.00              39.00,338.00 39.00,328.00 39.00,328.00              42.01,328.00 48.23,328.58 50.40,326.40              52.79,324.01 52.00,314.50 52.04,311.00              52.04,311.00 52.04,297.00 52.04,297.00              52.04,297.00 53.00,286.00 53.00,286.00              53.00,286.00 53.00,271.00 53.00,271.00              53.00,271.00 54.00,256.00 54.00,256.00              54.00,256.00 54.00,232.00 54.00,232.00              54.00,232.00 55.00,215.00 55.00,215.00              55.00,215.00 55.00,201.00 55.00,201.00              55.00,201.00 56.00,186.00 56.00,186.00              56.00,186.00 56.00,163.00 56.00,163.00              56.00,163.00 57.00,148.00 57.00,148.00              57.00,148.00 57.00,133.00 57.00,133.00 Z            M 126.00,133.00            C 126.00,133.00 141.00,133.00 141.00,133.00              141.00,133.00 141.00,139.00 141.00,139.00              141.00,139.00 126.00,139.00 126.00,139.00              126.00,139.00 126.00,133.00 126.00,133.00 Z            M 148.00,133.00            C 148.00,133.00 158.00,133.00 158.00,133.00              158.00,133.00 158.00,147.00 158.00,147.00              158.00,147.00 180.00,147.00 180.00,147.00              180.00,147.00 180.00,157.00 180.00,157.00              175.63,157.00 161.40,155.75 159.02,159.31              157.79,161.16 158.00,164.81 158.00,167.00              158.00,167.00 158.00,283.00 158.00,283.00              158.00,283.00 158.00,309.00 158.00,309.00              158.02,311.35 157.81,314.61 159.60,316.40              161.52,318.32 165.46,317.99 168.00,318.00              168.00,318.00 180.00,318.00 180.00,318.00              180.00,318.00 180.00,328.00 180.00,328.00              180.00,328.00 158.00,328.00 158.00,328.00              158.00,328.00 158.00,341.00 158.00,341.00              158.00,341.00 148.00,341.00 148.00,341.00              148.00,341.00 148.00,328.00 148.00,328.00              148.00,328.00 126.00,328.00 126.00,328.00              126.00,328.00 126.00,318.00 126.00,318.00              126.00,318.00 148.00,318.00 148.00,318.00              148.00,318.00 148.00,157.00 148.00,157.00              148.00,157.00 126.00,157.00 126.00,157.00              126.00,157.00 126.00,147.00 126.00,147.00              126.00,147.00 148.00,147.00 148.00,147.00              148.00,147.00 148.00,133.00 148.00,133.00 Z            M 165.00,133.00            C 165.00,133.00 180.00,133.00 180.00,133.00              180.00,133.00 180.00,139.00 180.00,139.00              180.00,139.00 165.00,139.00 165.00,139.00              165.00,139.00 165.00,133.00 165.00,133.00 Z            M 321.00,133.00            C 331.26,133.03 343.78,135.00 353.00,139.61              375.68,150.95 385.87,173.34 390.60,197.00              392.02,204.09 392.99,208.68 393.00,216.00              393.00,216.00 393.00,236.00 393.00,236.00              392.99,244.07 391.47,253.08 389.79,261.00              383.76,289.48 367.65,325.03 340.00,338.11              330.10,342.80 320.78,344.13 310.00,345.00              310.00,345.00 310.00,334.00 310.00,334.00              310.00,334.00 321.00,333.00 321.00,333.00              321.00,328.93 322.17,317.35 318.69,315.02              316.73,313.72 312.36,314.00 310.00,314.00              310.00,314.00 310.00,308.00 310.00,308.00              310.00,308.00 321.00,308.00 321.00,308.00              321.00,303.53 322.27,288.41 318.69,286.02              316.73,284.72 312.36,285.00 310.00,285.00              310.00,285.00 310.00,279.00 310.00,279.00              312.71,279.00 317.37,279.43 319.40,277.40              321.76,275.04 321.76,259.96 319.40,257.60              317.37,255.57 312.71,256.00 310.00,256.00              310.00,256.00 310.00,250.00 310.00,250.00              310.00,250.00 321.00,250.00 321.00,250.00              321.00,245.53 322.27,230.41 318.69,228.02              316.73,226.72 312.36,227.00 310.00,227.00              310.00,227.00 310.00,221.00 310.00,221.00              310.00,221.00 321.00,221.00 321.00,221.00              321.00,216.53 322.27,201.41 318.69,199.02              316.73,197.72 312.36,198.00 310.00,198.00              310.00,198.00 310.00,192.00 310.00,192.00              310.00,192.00 321.00,192.00 321.00,192.00              321.00,192.00 321.00,170.00 321.00,170.00              321.00,170.00 310.00,170.00 310.00,170.00              310.00,170.00 310.00,163.00 310.00,163.00              310.00,163.00 321.00,163.00 321.00,163.00              321.00,163.00 321.00,133.00 321.00,133.00 Z            M 408.00,133.00            C 408.00,133.00 424.00,133.00 424.00,133.00              424.00,133.00 424.00,139.00 424.00,139.00              424.00,139.00 408.00,139.00 408.00,139.00              408.00,139.00 408.00,133.00 408.00,133.00 Z            M 430.00,133.00            C 430.00,133.00 441.00,133.00 441.00,133.00              441.00,133.00 441.00,147.00 441.00,147.00              441.00,147.00 463.00,147.00 463.00,147.00              463.00,147.00 463.00,157.00 463.00,157.00              463.00,157.00 441.00,157.00 441.00,157.00              441.00,157.00 441.00,318.00 441.00,318.00              441.00,318.00 463.00,318.00 463.00,318.00              463.00,318.00 463.00,328.00 463.00,328.00              463.00,328.00 441.00,328.00 441.00,328.00              441.00,328.00 441.00,341.00 441.00,341.00              441.00,341.00 430.00,341.00 430.00,341.00              430.00,341.00 430.00,328.00 430.00,328.00              430.00,328.00 408.00,328.00 408.00,328.00              408.00,328.00 408.00,318.00 408.00,318.00              408.00,318.00 430.00,318.00 430.00,318.00              430.00,318.00 430.00,157.00 430.00,157.00              430.00,157.00 408.00,157.00 408.00,157.00              408.00,157.00 408.00,147.00 408.00,147.00              408.00,147.00 430.00,147.00 430.00,147.00              430.00,147.00 430.00,133.00 430.00,133.00 Z            M 447.00,133.00            C 447.00,133.00 463.00,133.00 463.00,133.00              463.00,133.00 463.00,139.00 463.00,139.00              463.00,139.00 447.00,139.00 447.00,139.00              447.00,139.00 447.00,133.00 447.00,133.00 Z            M 39.00,135.00            C 49.84,135.64 56.06,146.72 49.99,155.90              47.45,159.75 43.25,161.00 39.00,162.00              39.00,162.00 39.00,155.00 39.00,155.00              48.24,151.77 47.17,144.91 39.00,141.00              39.00,141.00 39.00,135.00 39.00,135.00 Z            M 250.04,143.78            C 260.49,142.33 261.36,154.87 253.98,157.38              247.36,159.64 240.36,149.23 250.04,143.78 Z            M 331.00,329.00            C 348.10,324.11 363.37,304.91 369.99,289.00              383.24,257.14 387.05,225.70 378.63,192.00              372.55,167.71 357.86,146.20 331.00,144.00              331.00,144.00 331.00,329.00 331.00,329.00 Z            M 247.00,164.00            C 247.00,164.00 262.00,163.00 262.00,163.00              262.00,163.00 263.00,192.00 263.00,192.00              263.00,192.00 247.00,164.00 247.00,164.00 Z            M 131.11,166.04            C 140.86,163.17 142.17,174.88 134.96,176.53              129.79,177.71 124.06,171.75 131.11,166.04 Z            M 170.13,165.76            C 179.10,164.19 180.41,173.83 174.79,176.26              168.49,178.98 162.44,170.74 170.13,165.76 Z            M 414.11,165.76            C 423.40,164.15 423.58,174.36 417.94,176.38              412.33,178.40 406.36,170.60 414.11,165.76 Z            M 452.15,166.04            C 460.94,163.41 462.99,173.04 457.85,175.97              452.52,179.02 445.16,172.18 452.15,166.04 Z            M 39.00,176.00            C 55.19,178.70 55.19,198.30 39.00,201.00              39.31,191.36 45.90,193.17 44.16,187.05              42.75,182.11 39.32,185.03 39.00,176.00 Z            M 341.00,176.00            C 341.00,176.00 348.00,182.00 348.00,182.00              348.00,182.00 348.00,178.00 348.00,178.00              348.00,178.00 354.00,178.00 354.00,178.00              354.00,178.00 354.00,182.00 354.00,182.00              354.00,182.00 362.00,176.00 362.00,176.00              367.48,184.64 357.62,186.44 354.74,194.00              353.56,197.08 354.00,209.00 354.00,213.00              354.00,213.00 348.00,213.00 348.00,213.00              348.00,213.00 347.26,194.00 347.26,194.00              347.26,194.00 337.00,180.00 337.00,180.00              337.00,180.00 341.00,176.00 341.00,176.00 Z            M 131.11,186.04            C 140.07,183.41 141.78,193.02 136.77,195.97              132.05,198.76 123.08,192.55 131.11,186.04 Z            M 169.23,186.03            C 178.32,182.94 180.64,192.58 175.61,195.82              170.14,199.35 162.18,192.53 169.23,186.03 Z            M 413.23,186.03            C 422.08,183.12 424.09,192.99 418.85,195.97              413.58,198.99 406.47,192.26 413.23,186.03 Z            M 452.15,186.03            C 461.23,183.13 463.00,193.04 457.85,195.97              452.53,199.01 445.16,192.20 452.15,186.03 Z            M 226.00,190.00            C 226.00,190.00 249.00,229.00 249.00,229.00              249.00,229.00 243.00,232.00 243.00,232.00              240.43,226.66 236.38,218.86 232.00,215.00              232.00,215.00 232.00,232.00 232.00,232.00              232.00,232.00 226.00,232.00 226.00,232.00              226.00,232.00 226.00,190.00 226.00,190.00 Z            M 80.00,205.00            C 80.00,205.00 86.00,205.00 86.00,205.00              86.00,205.00 86.00,238.00 86.00,238.00              86.00,238.00 80.00,238.00 80.00,238.00              80.00,238.00 80.00,205.00 80.00,205.00 Z            M 130.39,206.02            C 140.40,202.29 142.61,214.78 134.96,216.53              129.54,217.76 124.65,211.74 130.39,206.02 Z            M 169.23,206.02            C 171.77,205.13 174.20,204.50 176.49,206.60              179.80,209.64 178.27,215.50 173.90,216.53              168.36,217.83 163.13,211.66 169.23,206.02 Z            M 413.23,206.03            C 422.84,202.76 423.78,213.22 418.85,215.96              413.84,218.75 406.36,212.36 413.23,206.03 Z            M 452.23,205.74            C 462.19,203.49 462.87,214.27 456.94,216.38              451.02,218.50 445.64,210.48 452.23,205.74 Z            M 39.00,218.00            C 41.13,218.13 42.95,218.10 44.91,219.17              51.37,222.71 54.27,238.37 39.00,240.00              39.00,240.00 43.14,229.00 43.14,229.00              43.14,229.00 39.00,218.00 39.00,218.00 Z            M 350.00,221.00            C 350.00,221.00 353.00,228.00 353.00,228.00              353.00,228.00 362.00,226.00 362.00,226.00              357.75,232.97 358.04,231.72 361.00,239.00              361.00,239.00 353.00,238.00 353.00,238.00              353.00,238.00 351.00,245.00 351.00,245.00              346.53,238.61 348.89,238.71 340.00,239.00              344.69,231.74 343.25,233.27 340.00,226.00              346.76,227.87 347.78,227.75 350.00,221.00 Z            M 125.00,227.00            C 125.00,227.00 142.00,227.00 142.00,227.00              142.00,227.00 142.00,233.00 142.00,233.00              142.00,233.00 125.00,233.00 125.00,233.00              125.00,233.00 125.00,227.00 125.00,227.00 Z            M 164.00,227.00            C 164.00,227.00 181.00,227.00 181.00,227.00              181.00,227.00 181.00,233.00 181.00,233.00              181.00,233.00 164.00,233.00 164.00,233.00              164.00,233.00 164.00,227.00 164.00,227.00 Z            M 408.00,227.00            C 408.00,227.00 424.00,227.00 424.00,227.00              424.00,227.00 424.00,233.00 424.00,233.00              424.00,233.00 408.00,233.00 408.00,233.00              408.00,233.00 408.00,227.00 408.00,227.00 Z            M 447.00,227.00            C 447.00,227.00 463.00,227.00 463.00,227.00              463.00,227.00 463.00,233.00 463.00,233.00              463.00,233.00 447.00,233.00 447.00,233.00              447.00,233.00 447.00,227.00 447.00,227.00 Z            M 236.00,235.00            C 236.00,235.00 242.00,235.00 242.00,235.00              242.00,235.00 244.00,256.00 244.00,256.00              244.00,256.00 262.94,251.00 262.94,251.00              263.24,252.64 263.83,254.93 262.94,256.44              261.26,259.03 248.28,261.70 245.00,262.00              245.00,262.00 247.00,280.00 247.00,280.00              247.00,280.00 264.00,275.00 264.00,275.00              264.00,275.00 265.00,282.00 265.00,282.00              265.00,282.00 248.00,286.00 248.00,286.00              248.10,297.17 251.97,302.92 256.00,313.00              250.11,315.55 250.31,313.97 246.00,310.00              246.00,310.00 245.00,317.00 245.00,317.00              242.94,316.83 240.62,316.95 239.64,314.69              238.74,312.61 240.14,307.28 240.65,305.00              242.33,297.51 242.00,296.48 242.00,289.00              242.00,289.00 222.00,294.00 222.00,294.00              222.00,294.00 221.00,288.00 221.00,288.00              224.61,286.92 238.25,283.64 239.69,280.70              240.87,278.31 239.15,268.31 239.00,265.00              239.00,265.00 223.00,269.00 223.00,269.00              223.00,269.00 222.00,263.00 222.00,263.00              222.00,263.00 236.39,257.30 236.39,257.30              236.39,257.30 237.15,250.00 237.15,250.00              237.15,250.00 236.00,235.00 236.00,235.00 Z            M 125.00,241.00            C 125.00,241.00 142.00,241.00 142.00,241.00              141.93,242.98 142.14,245.60 140.40,246.98              138.26,248.67 127.78,248.62 126.02,246.40              124.91,245.00 125.06,242.69 125.00,241.00 Z            M 164.00,241.00            C 164.00,241.00 181.00,241.00 181.00,241.00              180.94,242.69 181.09,245.00 179.98,246.40              178.22,248.62 167.74,248.67 165.60,246.98              163.86,245.60 164.07,242.98 164.00,241.00 Z            M 408.00,241.00            C 408.00,241.00 424.00,241.00 424.00,241.00              424.00,241.00 424.00,248.00 424.00,248.00              424.00,248.00 408.00,248.00 408.00,248.00              408.00,248.00 408.00,241.00 408.00,241.00 Z            M 447.00,241.00            C 447.00,241.00 463.00,241.00 463.00,241.00              462.71,249.11 461.48,248.00 447.00,248.00              447.00,248.00 447.00,241.00 447.00,241.00 Z            M 76.00,250.00            C 76.00,250.00 91.00,250.00 91.00,250.00              91.00,250.00 91.00,265.00 91.00,265.00              91.00,265.00 76.00,265.00 76.00,265.00              76.00,265.00 76.00,250.00 76.00,250.00 Z            M 348.00,253.00            C 348.00,253.00 354.00,253.00 354.00,253.00              354.00,253.00 354.93,272.00 354.93,272.00              354.93,272.00 365.00,287.00 365.00,287.00              359.47,289.67 358.06,286.92 354.00,283.00              354.00,283.00 354.00,288.00 354.00,288.00              354.00,288.00 348.00,288.00 348.00,288.00              348.00,288.00 348.00,284.00 348.00,284.00              348.00,284.00 342.00,290.00 342.00,290.00              342.00,290.00 337.00,285.00 337.00,285.00              337.00,285.00 347.15,272.00 347.15,272.00              347.15,272.00 348.00,253.00 348.00,253.00 Z            M 39.00,259.00            C 47.88,260.48 52.98,268.63 47.30,275.78              45.33,278.25 42.83,278.98 40.00,280.00              38.07,272.34 42.56,273.25 42.11,269.05              41.76,265.79 39.28,267.03 39.00,259.00 Z            M 76.00,276.00            C 76.00,276.00 98.00,276.00 98.00,276.00              98.00,276.00 96.98,281.40 96.98,281.40              96.98,281.40 90.00,283.00 90.00,283.00              90.00,283.00 76.00,283.00 76.00,283.00              76.00,283.00 76.00,276.00 76.00,276.00 Z            M 76.00,294.00            C 76.00,294.00 103.00,294.00 103.00,294.00              103.00,294.00 103.00,300.00 103.00,300.00              103.00,300.00 76.00,300.00 76.00,300.00              76.00,300.00 76.00,294.00 76.00,294.00 Z            M 126.00,302.00            C 133.02,295.08 134.90,293.12 142.00,303.00              134.98,309.92 133.10,311.88 126.00,302.00 Z            M 171.00,295.00            C 175.58,297.17 177.08,298.94 180.00,303.00              172.98,309.92 171.10,311.88 164.00,302.00              164.00,302.00 171.00,295.00 171.00,295.00 Z            M 408.00,302.00            C 415.02,295.08 416.90,293.12 424.00,303.00              416.98,309.92 415.10,311.88 408.00,302.00 Z            M 447.00,302.00            C 454.02,295.08 455.90,293.12 463.00,303.00              455.98,309.92 454.10,311.88 447.00,302.00 Z            M 39.00,300.00            C 51.19,302.59 51.79,317.51 39.00,319.00              39.00,319.00 40.92,309.83 40.92,309.83              40.92,309.83 39.00,300.00 39.00,300.00 Z            M 76.00,312.00            C 76.00,312.00 108.00,312.00 108.00,312.00              108.00,312.00 108.00,318.00 108.00,318.00              108.00,318.00 76.00,318.00 76.00,318.00              76.00,318.00 76.00,312.00 76.00,312.00 Z            M 126.00,335.00            C 126.00,335.00 141.00,335.00 141.00,335.00              141.00,335.00 141.00,341.00 141.00,341.00              141.00,341.00 126.00,341.00 126.00,341.00              126.00,341.00 126.00,335.00 126.00,335.00 Z            M 165.00,335.00            C 165.00,335.00 180.00,335.00 180.00,335.00              180.00,335.00 180.00,341.00 180.00,341.00              180.00,341.00 165.00,341.00 165.00,341.00              165.00,341.00 165.00,335.00 165.00,335.00 Z            M 408.00,335.00            C 408.00,335.00 424.00,335.00 424.00,335.00              424.00,335.00 424.00,341.00 424.00,341.00              424.00,341.00 408.00,341.00 408.00,341.00              408.00,341.00 408.00,335.00 408.00,335.00 Z            M 447.00,335.00            C 447.00,335.00 463.00,335.00 463.00,335.00              463.00,335.00 463.00,341.00 463.00,341.00              463.00,341.00 447.00,341.00 447.00,341.00              447.00,341.00 447.00,335.00 447.00,335.00 Z" />
  <path
     style="fill:#000000;stroke-width:1.14578"
     d="m 76.240093,177.98235 c -0.908811,33.56215 -1.254222,67.29052 -2.895868,100.89005 -1.281985,48.43335 -2.78206,96.87382 -3.780659,145.30386 -0.183885,4.68511 -0.01565,12.35688 -6.337638,12.8256 -3.660059,0.96836 -8.400341,-0.88336 -11.270839,1.19052 1.156498,3.79008 -2.946032,12.90267 3.458344,11.98349 3.964506,1.25471 12.556614,-2.78205 12.968687,2.53473 0.01153,3.55793 2.161751,7.21858 6.137958,6.76467 4.173115,0.29336 10.242143,1.16507 8.222102,-5.08512 -2.048663,-7.14765 6.965037,-3.23294 11.082687,-4.21428 20.939623,-0.24085 42.105273,0.47978 62.904573,-0.35799 -0.80107,-3.68676 2.79564,-12.29933 -2.42434,-12.5263 -22.30635,0 -44.6127,0 -66.919048,0 -5.176464,-2.48689 -3.89219,-7.9193 -3.895571,-12.76595 -0.397817,-25.99769 1.971425,-51.89075 2.278035,-77.89136 1.737158,-54.46988 2.152405,-108.99211 4.663567,-163.43077 1.991778,-5.57222 -4.943628,-4.42173 -8.314303,-5.13623 -1.92222,0.052 -4.066117,-0.80271 -5.877687,-0.0849 z"
     id="path4987"
     transform="scale(0.75000046)" />
  <path
     style="fill:#000000;stroke-width:1.14578"
     d="m 197.91654,177.63269 c -0.42413,6.07326 -0.06,12.27481 -0.1815,18.39733 -9.85549,0.24698 -19.94119,-0.48527 -29.65651,0.35798 0.80107,3.68676 -2.79564,12.29933 2.42434,12.52631 9.07739,0 18.15478,0 27.23217,0 0,71.86318 0,143.72637 0,215.58955 -9.85549,0.24699 -19.94119,-0.48526 -29.65651,0.35799 0.80107,3.68676 -2.79564,12.29933 2.42434,12.5263 9.07739,0 18.15478,0 27.23217,0 0.23575,5.59557 -0.47304,11.41318 0.35799,16.8688 3.68676,-0.80107 12.29933,2.79564 12.5263,-2.42434 1.0027,-4.38046 -2.09024,-12.85656 1.70503,-14.44446 9.00519,-0.2376 18.23392,0.47569 27.09897,-0.35798 -0.80143,-3.64891 2.77991,-12.06479 -2.39342,-12.38816 -7.95213,-0.79381 -16.43063,0.48583 -24.11112,-1.86648 -2.78517,-5.54661 -1.34201,-12.46117 -2.01954,-18.50707 -0.43821,-63.57578 -0.47667,-127.20651 0.24957,-190.77855 2.4719,-4.96504 9.53835,-3.56134 14.09646,-4.33417 4.70053,-0.41184 9.65716,0.17907 14.1947,-0.82088 -0.83743,-3.62265 2.78253,-12.14504 -2.44099,-12.30484 -8.79322,0 -17.58644,0 -26.37966,0 -0.2363,-6.16378 0.47379,-12.55004 -0.35799,-18.57383 -3.98709,-0.15835 -8.45398,-0.56158 -12.3448,0.1765 z"
     id="path4989"
     transform="scale(0.75000046)" />
  <path
     style="fill:#000000;stroke-width:1.14578"
     d="m 284.86967,172.88392 c -2.77894,2.30448 -1.46018,7.25488 -2.612,10.45246 -5.25777,40.10035 -9.7147,80.35289 -10.64434,120.81924 -1.12177,21.88307 -2.30412,43.73753 -2.8599,65.64969 -1.24371,26.78036 -3.89536,53.62191 -2.80725,80.43717 1.94636,3.65183 7.81463,2.31704 11.19791,3.38069 3.36114,-0.6709 0.85795,-6.35512 1.93281,-9.10686 2.95185,-49.4393 4.36188,-99.00336 7.19809,-148.46738 0.6149,-28.17946 3.87378,-56.26748 7.07154,-84.25905 25.34845,42.29263 49.82604,85.10831 73.67422,128.26844 2.94014,39.42464 3.60166,79.03946 6.55704,118.43123 3.24858,2.40178 8.1443,0.0127 11.89524,-0.26308 1.83496,-3.61349 -0.0623,-8.67038 0.4384,-12.75402 -1.9919,-68.81277 -6.64041,-137.51058 -8.90968,-206.31371 -0.90998,-18.93377 -1.21502,-37.91178 -2.84119,-56.80226 -3.89057,-1.61785 -9.38418,-0.78636 -13.65688,-0.46122 0.6547,40.62572 4.49588,81.4032 4.8237,122.01778 -0.45355,2.15933 -2.81699,-3.87561 -3.77138,-4.63887 -24.95687,-41.30813 -48.21062,-83.65767 -74.05386,-124.42381 -0.68203,-0.79871 -1.39518,-2.10667 -2.63247,-1.96644 z"
     id="path4991"
     transform="scale(0.75000046)" />
  <path
     style="fill:#000000;stroke-width:1.14578"
     d="m 428.15536,177.39458 c -0.56289,13.22449 -0.0798,26.64761 -0.24144,39.94829 -4.65152,0.61873 -10.63814,-1.22118 -14.49274,0.90081 -0.90318,5.57991 -0.055,10.69516 6.8684,8.57343 6.59391,-1.49492 9.11649,1.08149 7.62434,7.67263 0,7.35626 0,14.71253 0,22.06879 -4.65152,0.61873 -10.63814,-1.22118 -14.49274,0.90081 -0.73017,2.95374 0.41443,6.55228 4.05444,6.14743 4.16437,0.20012 9.98342,0.93223 9.96209,6.38053 1.55569,8.28044 1.33905,16.60296 0.35799,24.93438 -4.60626,0.62965 -10.56718,-1.23587 -14.37452,0.9008 -1.16427,5.04704 0.78257,8.38818 6.17906,6.87174 4.73853,-0.82935 7.92773,3.28098 7.98899,7.64931 1.22074,7.61993 1.20366,15.3012 0.26142,22.9413 -4.62631,0.62648 -10.60169,-1.23199 -14.42947,0.9008 -0.0861,2.45561 -0.79681,7.43947 3.21857,6.86008 5.10731,-0.54977 12.20552,2.034 11.21756,8.44521 -0.12158,6.80274 1.57317,14.6821 -2.19622,20.74008 -3.3041,3.14399 -9.65311,0.28034 -12.11004,4.26591 -1.18776,3.28595 1.67571,5.67388 4.85853,5.2941 3.4607,0.38035 8.54373,0.59902 8.81001,5.19082 1.83583,8.5575 1.5695,17.24239 0.57611,25.8818 -4.60626,0.62965 -10.56718,-1.23587 -14.37452,0.90081 -1.11722,5.00279 0.69593,8.4031 6.15076,6.87339 4.65532,-0.67891 8.08138,3.22111 8.2171,7.64932 1.01301,5.91215 0.76752,11.91162 0.0383,17.8079 -4.53433,1.02033 -10.02883,0.0153 -13.97824,2.15958 0.9366,4.00497 -2.75684,11.88902 1.33429,13.41359 22.60369,-1.29522 45.44871,-9.29162 61.36145,-25.91239 25.22197,-25.71507 38.09455,-60.92435 44.98593,-95.65702 2.47608,-17.79449 1.63953,-35.88606 1.73269,-53.80815 -0.83495,-20.42982 -6.45009,-40.65262 -15.26874,-59.04662 -11.0028,-22.95105 -32.50727,-41.1304 -57.92542,-45.38349 -7.21702,-1.17956 -14.68958,-2.50609 -21.91394,-2.46597 z m 16.1012,14.75583 c 22.9188,2.21983 42.19211,18.98589 51.85185,39.36385 12.65096,25.97998 15.09247,55.79681 14.35756,84.30379 -1.89507,25.90341 -8.74515,51.55728 -19.59611,75.18275 -10.49081,20.46561 -26.50938,39.93139 -48.85449,47.66446 -2.83233,-1.68087 -0.41246,-9.97553 -1.21716,-14.20968 0,-77.57104 0,-155.14207 0,-232.71311 1.15278,0.13598 2.30556,0.27196 3.45835,0.40794 z"
     id="path4993"
     transform="scale(0.75000046)" />
  <path
     style="fill:#1a1a1a;stroke-width:1.14578"
     d="m 573.87537,177.63269 c -0.42412,6.07326 -0.06,12.27481 -0.18149,18.39733 -9.8555,0.24698 -19.9412,-0.48527 -29.65651,0.35798 0.80106,3.68676 -2.79565,12.29933 2.42433,12.52631 9.0774,0 18.15479,0 27.23218,0 0,71.86318 0,143.72637 0,215.58955 -9.8555,0.24699 -19.9412,-0.48526 -29.65651,0.35799 0.80106,3.68676 -2.79565,12.29933 2.42433,12.5263 9.0774,0 18.15479,0 27.23218,0 0.23574,5.59557 -0.47304,11.41318 0.35799,16.8688 3.96693,-0.7987 12.88307,2.80973 13.37881,-2.42434 1.0027,-4.38046 -2.09024,-12.85656 1.70503,-14.44446 9.28705,-0.24741 18.80485,0.48674 27.95148,-0.35798 -0.80106,-3.68676 2.79565,-12.29933 -2.42434,-12.52631 -9.07739,0 -18.15478,0 -27.23217,0 0,-71.86318 0,-143.72637 0,-215.58955 9.85549,-0.24699 19.9412,0.48527 29.65651,-0.35799 -0.80106,-3.68676 2.79565,-12.29933 -2.42434,-12.5263 -9.07739,0 -18.15478,0 -27.23217,0 -0.2363,-6.16378 0.47379,-12.55004 -0.35799,-18.57383 -4.28141,-0.19049 -9.01011,-0.52969 -13.19732,0.1765 z"
     id="path4995"
     transform="scale(0.75000046)" />
  <path
     style="fill:#008000;stroke-width:0.57289"
     d="m 53.615993,399.75764 c -3.021248,0.36995 -1.673106,3.89458 -1.418637,5.8294 0.641134,3.9207 2.107639,7.83565 0.557212,11.73226 -0.204327,2.5194 -1.742131,5.15843 -0.946005,7.63413 2.28233,2.12196 5.616344,-0.19548 7.809165,-1.44611 4.404209,-2.61762 6.661702,-8.04033 5.285755,-12.98752 -1.221975,-5.32439 -5.944684,-9.81466 -11.28749,-10.76216 z"
     id="path5327"
     transform="scale(0.75000046)" />
  <path
     style="fill:#008000;stroke-width:0.57289"
     d="m 52.014199,344.8662 c -1.902622,2.09825 -0.343763,5.3364 0.411271,7.74506 0.970242,2.91059 4.073659,5.69632 2.209545,8.92143 -1.640074,2.7829 -3.288539,5.78097 -2.675763,9.15038 -0.342898,2.22219 1.964586,3.76747 3.900419,2.64995 6.858533,-1.95793 12.332057,-8.97443 10.928668,-16.25771 -1.361822,-6.46362 -7.537714,-11.49406 -13.934,-12.31655 l -0.422814,0.0541 z"
     id="path5329"
     transform="scale(0.75000046)" />
  <path
     style="fill:#008000;stroke-width:0.57289"
     d="m 101.11037,332.83609 c -1.347712,3.22545 -0.25624,7.04656 -0.60858,10.51407 0.2624,3.43145 -0.549488,7.05919 0.4504,10.35588 3.22544,1.34771 7.04655,0.25624 10.51406,0.60859 3.43145,-0.26241 7.05919,0.54948 10.35589,-0.45041 1.34771,-3.22544 0.25623,-7.04655 0.60858,-10.51406 -0.26241,-3.43145 0.54948,-7.05919 -0.4504,-10.35589 -3.22545,-1.34771 -7.04656,-0.25623 -10.51407,-0.60858 -3.4175,0.26273 -7.07992,-0.54994 -10.35588,0.4504 z"
     id="path5331"
     transform="scale(0.75000046)" />
  <path
     style="fill:#008000;stroke-width:0.57289"
     d="m 101.11037,367.36292 c -1.317024,2.73526 -0.27815,6.04686 -0.60858,9.02217 0.90145,3.1161 4.95004,1.3252 7.3446,1.79077 7.28053,-0.0478 14.94217,0.43345 21.75829,-2.44804 1.20342,-1.87354 1.45743,-4.59315 1.64945,-6.84347 -0.64601,-2.81505 -4.41125,-1.46154 -6.50131,-1.89427 -7.60783,-0.0421 -15.2875,-0.25175 -22.84981,0.0732 l -0.39872,0.15074 z"
     id="path5333"
     transform="scale(0.75000046)" />
  <path
     style="fill:#008000;stroke-width:0.57289"
     d="m 101.11037,391.65958 c -1.182074,2.30131 -0.50222,5.22334 -0.45785,7.71586 1.21597,2.58314 4.88052,0.93634 7.19055,1.40122 9.64349,-0.10033 19.36034,0.20076 28.95794,-0.15074 2.58315,-1.21597 0.93635,-4.88052 1.40123,-7.19054 -0.2212,-3.49484 -4.60008,-1.85749 -6.91503,-2.2262 -9.78558,0.10034 -19.64451,-0.20077 -29.3842,0.15074 l -0.39872,0.15074 z"
     id="path5335"
     transform="scale(0.75000046)" />
  <path
     style="fill:#008000;stroke-width:0.57289"
     d="m 101.11037,415.52999 c -1.185936,2.43932 -0.49892,5.51146 -0.45785,8.1421 1.21597,2.58315 4.88052,0.93635 7.19055,1.40123 11.91686,-0.10039 23.9071,0.20084 35.77806,-0.15074 2.61329,-1.2778 0.91745,-5.027 1.40122,-7.40367 0.036,-3.68835 -4.56146,-2.11861 -6.91502,-2.43933 -12.05895,0.10039 -24.19128,-0.20084 -36.20432,0.15074 l -0.39872,0.15074 z"
     id="path5337"
     transform="scale(0.75000046)" />
  <path
     style="fill:#008000;stroke-width:0.57289"
     d="m 178.82238,394.17966 c -4.59646,0.46311 -7.58994,4.56391 -10.932,7.28134 -1.56878,2.63402 1.96731,4.58204 3.30683,6.59732 2.38012,2.77053 6.05073,5.87044 9.87967,3.85514 3.52324,-1.81495 6.68509,-4.71306 8.74743,-8.02313 -1.72996,-3.60434 -4.77536,-6.76694 -8.13885,-8.99635 -0.87749,-0.46569 -1.86519,-0.7417 -2.86308,-0.71432 z"
     id="path5339"
     transform="scale(0.75000046)" />
  <path
     style="fill:#008000;stroke-width:0.57289"
     d="m 226.86956,393.11735 c -2.84989,3.24414 -6.62133,5.85422 -8.85233,9.52418 1.50259,3.39039 4.3826,6.23272 7.29549,8.54679 2.04846,1.65005 4.92699,2.06166 7.09984,0.37048 2.88806,-1.99173 6.16639,-4.13353 7.7051,-7.37042 0.08,-3.23848 -3.33117,-5.19033 -5.26993,-7.37042 -2.16553,-1.66271 -4.61292,-4.28072 -7.44317,-3.9899 l -0.37495,0.20275 z"
     id="path5341"
     transform="scale(0.75000046)" />
  <path
     style="fill:#008000;stroke-width:0.57289"
     d="m 167.60649,446.2205 c -1.18594,2.43932 -0.49892,5.51146 -0.45785,8.14211 1.21598,2.58314 4.88052,0.93635 7.19055,1.40122 4.51083,-0.19655 9.16648,0.39953 13.58514,-0.30147 2.02604,-1.8664 0.5508,-5.34954 1.00251,-7.89232 -0.90062,-3.1136 -4.94765,-1.33049 -7.34128,-1.79994 -4.51083,0.19656 -9.16649,-0.39952 -13.58515,0.30148 z"
     id="path5343"
     transform="scale(0.75000046)" />
  <path
     style="fill:#008000;stroke-width:0.57289"
     d="m 219.60986,446.2205 c -1.18593,2.43932 -0.49891,5.51146 -0.45784,8.14211 1.21597,2.58314 4.88052,0.93635 7.19054,1.40122 4.51083,-0.19655 9.16649,0.39953 13.58515,-0.30147 2.02603,-1.8664 0.5508,-5.34954 1.00251,-7.89232 -0.90062,-3.1136 -4.94765,-1.33049 -7.34129,-1.79994 -4.51082,0.19656 -9.16648,-0.39952 -13.58514,0.30148 z"
     id="path5345"
     transform="scale(0.75000046)" />
  <path
     style="fill:#008000;stroke-width:0.57289"
     d="m 52.313078,290.0064 c -1.916546,2.38838 1.027789,5.27727 1.451523,7.83271 0.772505,2.62961 2.386587,5.26003 2.666515,7.8906 -1.479068,4.47402 -3.737339,8.80611 -4.719402,13.37041 0.807701,2.77255 4.3572,0.97126 6.305052,0.32469 5.620281,-1.91434 9.818432,-7.37779 9.579963,-13.40379 0.405364,-7.23966 -4.442981,-15.09228 -12.025947,-16.00463 -1.10596,-0.1608 -2.17262,-0.44153 -3.257704,-0.01 z"
     id="path5347"
     transform="scale(0.75000046)" />
  <path
     style="fill:#008000;stroke-width:0.57289"
     d="m 106.22545,272.73383 c -1.34414,3.15523 -0.25879,6.90388 -0.60858,10.30094 0.10106,11.2063 -0.20183,22.48642 0.15074,33.64677 1.2778,2.6133 5.027,0.91746 7.40367,1.40123 3.68835,0.036 2.11861,-4.56146 2.43932,-6.91503 -0.10126,-12.48504 0.20172,-25.04394 -0.15073,-37.48309 -1.2778,-2.6133 -5.027,-0.91746 -7.40367,-1.40122 -0.66276,-0.12396 -1.22607,0.25703 -1.83075,0.4504 z"
     id="path5351"
     transform="scale(0.75000046)" />
  <path
     style="fill:#008000;stroke-width:0.57289"
     d="m 52.2906,234.05848 c -2.393063,1.678 -0.45793,4.97744 -0.0716,7.22972 1.822241,4.01605 7.094842,6.82711 5.929304,11.86944 -1.99682,3.73557 -6.186288,6.37509 -6.529561,10.97529 -0.749952,1.67499 -0.776598,4.64518 1.774129,4.45488 6.604636,-1.33216 12.742284,-5.88237 14.922332,-12.4239 1.658195,-5.67431 0.253914,-12.21106 -4.075252,-16.36011 -3.019226,-3.05596 -7.140441,-5.06884 -11.314713,-5.80569 l -0.424341,0.0404 z"
     id="path5353"
     transform="scale(0.75000046)" />
  <path
     style="fill:#008000;stroke-width:0.57289"
     d="m 51.855185,179.55085 c -1.658995,2.18686 -0.410937,5.27278 -0.799232,7.84496 0.908371,2.55558 4.294424,2.85994 5.933467,4.96273 3.499207,2.86379 3.485626,9.21215 -0.880821,11.21673 -2.145029,1.37965 -5.907405,2.1508 -5.04237,5.50054 0.339584,2.26092 -0.739836,5.18018 0.799123,7.02711 2.303191,1.15559 5.010769,-0.74639 7.336206,-1.41593 9.286253,-3.52515 14.347243,-15.38393 9.799656,-24.3565 -2.917003,-6.17703 -9.480652,-10.79428 -16.320763,-10.97128 l -0.41521,0.0964 z"
     id="path5355"
     transform="scale(0.75000046)" />
  <path
     style="fill:#008000;stroke-width:0.57289"
     d="m 178.32785,219.93538 c -4.89702,-0.17831 -8.9189,4.86469 -8.70663,9.52752 0.86412,6.3469 9.81419,9.34354 14.36953,4.77874 3.78088,-3.26985 3.95339,-10.2546 -0.65188,-12.89678 -1.46759,-0.98739 -3.25037,-1.44811 -5.01102,-1.40948 z"
     id="path5357"
     transform="scale(0.75000046)" />
  <path
     style="fill:#008000;stroke-width:0.57289"
     d="m 177.26721,246.71383 c -4.02899,-0.0762 -6.75941,4.16702 -7.49197,7.70093 -0.84106,7.44033 10.20694,11.59137 14.89902,6.03087 3.89973,-4.12045 2.36835,-12.61208 -3.80884,-13.47455 -1.18089,-0.25631 -2.39486,-0.28262 -3.59821,-0.25725 z"
     id="path5359"
     transform="scale(0.75000046)" />
  <path
     style="fill:#008000;stroke-width:0.57289"
     d="m 229.95493,246.39247 c -3.99908,-0.34681 -7.48302,2.5876 -8.44522,6.36805 -1.91574,5.46825 3.48555,11.16422 9.02133,10.29094 4.65928,-0.1594 8.36721,-4.55115 7.78918,-9.16203 -0.10024,-4.34053 -4.06806,-7.8009 -8.36529,-7.49696 z"
     id="path5361"
     transform="scale(0.75000046)" />
  <path
     style="fill:#008000;stroke-width:0.57289"
     d="m 229.26725,219.85629 c -6.68743,-0.002 -10.94701,9.57048 -5.63125,14.11062 4.07143,4.61707 12.47608,2.6287 14.27878,-3.15947 2.11075,-5.68228 -2.88633,-11.17178 -8.64753,-10.95115 z"
     id="path5363"
     transform="scale(0.75000046)" />
  <path
     style="fill:#008000;stroke-width:0.57289"
     d="m 177.99318,272.9686 c -6.89432,-0.5962 -11.21919,9.41589 -6.12828,14.05983 3.83718,4.26826 11.56082,3.32314 14.03735,-1.92565 2.56114,-4.73547 -0.43099,-11.64364 -6.09332,-12.02595 -0.60103,-0.0854 -1.20895,-0.11822 -1.81575,-0.10823 z"
     id="path5365"
     transform="scale(0.75000046)" />
  <path
     style="fill:#008000;stroke-width:0.57289"
     d="m 230.02319,272.75881 c -6.30274,-0.18457 -11.11407,7.54475 -7.72008,12.98835 2.89249,4.52243 10.13424,5.685 13.77926,1.38034 4.11291,-4.03522 2.70055,-11.86227 -2.8381,-13.80174 -1.02216,-0.39976 -2.12444,-0.5881 -3.22108,-0.56695 z"
     id="path5367"
     transform="scale(0.75000046)" />
  <path
     style="fill:#008000;stroke-width:0.57289"
     d="m 166.32772,302.14558 c -1.18594,2.43932 -0.49892,5.51146 -0.45785,8.1421 1.21597,2.58315 4.88052,0.93635 7.19055,1.40123 5.36285,-0.19923 10.87192,0.40179 16.14268,-0.30148 2.02604,-1.8664 0.5508,-5.34953 1.00251,-7.89232 -0.90062,-3.11359 -4.94765,-1.33049 -7.34128,-1.79994 -5.36286,0.19923 -10.87193,-0.40179 -16.14269,0.30148 z"
     id="path5369"
     transform="scale(0.75000046)" />
  <path
     style="fill:#008000;stroke-width:0.57289"
     d="m 218.33109,302.14558 c -1.18593,2.43932 -0.49892,5.51146 -0.45784,8.1421 1.21597,2.58315 4.88052,0.93635 7.19054,1.40123 5.36286,-0.19923 10.87193,0.40179 16.14269,-0.30148 2.02603,-1.8664 0.5508,-5.34953 1.00251,-7.89232 -0.90062,-3.11359 -4.94765,-1.33049 -7.34128,-1.79994 -5.36286,0.19923 -10.87193,-0.40179 -16.14269,0.30148 z"
     id="path5371"
     transform="scale(0.75000046)" />
  <path
     style="fill:#008000;stroke-width:0.57289"
     d="m 166.32772,320.90089 c -1.28062,2.7574 -0.42962,6.64836 1.71002,8.83818 4.97965,2.56889 10.93359,2.00067 16.33015,1.49689 3.86255,-0.41847 6.02162,-4.31792 5.85233,-7.92405 0.76608,-3.4052 -3.34747,-2.96545 -5.54263,-2.86142 -5.96712,0.2001 -12.08064,-0.40106 -17.95595,0.30147 z"
     id="path5373"
     transform="scale(0.75000046)" />
  <path
     style="fill:#008000;stroke-width:0.57289"
     d="m 218.21204,320.90089 c -1.12156,2.29325 -0.27904,5.30349 0.84918,7.54442 2.82585,4.0839 8.56634,3.00182 12.82352,3.0837 3.56892,-0.0977 8.29262,-0.41763 9.69901,-4.38911 0.68593,-2.15613 1.58368,-5.89348 -1.1747,-6.68941 -7.12536,0.10186 -14.32487,-0.20211 -21.40437,0.15074 l -0.39871,0.15073 z"
     id="path5375"
     transform="scale(0.75000046)" />
  <path
     style="fill:#008000;stroke-width:0.57289"
     d="m 167.60649,176.82596 c -1.18594,2.43933 -0.49892,5.51147 -0.45785,8.14211 1.21598,2.58315 4.88052,0.93635 7.19055,1.40123 4.51083,-0.19656 9.16648,0.39952 13.58514,-0.30148 2.02604,-1.8664 0.5508,-5.34953 1.00251,-7.89232 -0.90062,-3.1136 -4.94765,-1.33049 -7.34128,-1.79994 -4.51083,0.19656 -9.16649,-0.39952 -13.58515,0.30148 z"
     id="path5377"
     transform="scale(0.75000046)" />
  <path
     style="fill:#008000;stroke-width:0.57289"
     d="m 219.60986,176.82596 c -1.18593,2.43933 -0.49891,5.51147 -0.45784,8.14211 1.21597,2.58315 4.88052,0.93635 7.19054,1.40123 4.51083,-0.19656 9.16649,0.39952 13.58515,-0.30148 2.02603,-1.8664 0.5508,-5.34953 1.00251,-7.89232 -0.90062,-3.1136 -4.94765,-1.33049 -7.34129,-1.79994 -4.51082,0.19656 -9.16648,-0.39952 -13.58514,0.30148 z"
     id="path5379"
     transform="scale(0.75000046)" />
  <path
     style="fill:#008000;stroke-width:0.810188"
     d="m 314.4971,312.80167 c -1.12547,4.6604 0.56843,9.5681 0.28728,14.30871 -0.0554,4.97231 0.5407,10.24349 -0.44622,15.05633 -5.8243,3.47655 -12.92292,4.65647 -18.50254,8.35116 0.33832,2.67188 -0.98045,7.10021 1.95984,8.50907 6.7624,-0.98996 13.49173,-3.37481 20.15961,-4.58839 0.41543,6.29941 1.88835,12.87932 0.79826,19.1548 -2.62741,3.89315 -8.16483,4.19771 -12.09956,6.0129 -4.0115,1.67446 -8.63181,2.04754 -12.35698,4.1785 0.089,2.6886 -0.29189,6.435 1.94856,8.40414 7.02955,-0.70046 13.92722,-3.19914 20.87905,-4.65687 2.15969,-0.31594 5.96125,-2.71484 4.75618,1.20909 0.20051,9.14998 -1.89726,17.70308 -3.43701,26.6945 -1.14617,4.28134 2.7905,8.67264 7.17506,7.62419 3.30239,-1.06754 2.12166,-5.50908 2.91638,-8.03444 2.69934,2.39789 5.83701,5.58865 9.81935,4.17499 2.59413,0.19349 4.05234,-2.48806 2.52077,-4.59296 -3.9929,-10.63717 -9.52373,-21.14602 -9.32956,-32.66641 6.88884,-1.90752 14.15293,-2.76363 20.85258,-5.19343 2.77221,-2.39067 0.72294,-6.71993 0.19904,-9.60367 -2.51025,-2.37093 -6.44571,1.1232 -9.48137,1.29808 -4.21048,1.03047 -9.10152,3.11751 -12.96663,3.32174 -0.98877,-7.21256 -1.88241,-14.40997 -2.66205,-21.6167 7.62771,-1.69116 15.78739,-2.73925 22.54801,-6.89003 2.53933,-1.9143 2.86009,-7.27209 -0.12952,-8.83624 -7.98751,1.27477 -15.78539,4.06578 -23.7454,5.74797 -1.16646,-8.79556 -1.49763,-17.79845 -2.83395,-26.50872 -2.06934,-2.23026 -6.28907,-1.49779 -8.82918,-0.85831 z"
     id="path5381"
     transform="scale(0.75000046)" />
  <path
     style="fill:#008000;stroke-width:0.810188"
     d="m 302.343,255.83884 c -3.07864,1.47707 -1.4256,5.88478 -1.99951,8.61832 -0.0462,14.89873 -0.39275,29.91951 0.10009,44.74137 1.97099,2.31891 6.53447,1.20625 9.3123,0.78071 1.57422,-4.3533 0.25628,-9.62918 0.6875,-14.34024 0.4691,-1.60928 -1.19214,-9.05004 1.33397,-5.13809 4.74723,5.66343 7.83644,12.52759 11.8002,18.62831 2.65717,1.18043 5.56818,-1.75548 7.98215,-2.99858 1.60774,-2.95415 -2.31768,-5.59872 -3.14387,-8.30562 -8.25998,-13.86744 -16.17276,-28.03584 -24.7371,-41.66367 -0.32701,-0.35815 -0.93904,-0.12321 -1.33573,-0.32251 z"
     id="path5383"
     transform="scale(0.75000046)" />
  <path
     style="fill:#008000;stroke-width:0.810188"
     d="m 348.30675,216.51787 c -6.16516,0.70563 -12.70292,0.27675 -18.59201,2.07219 -0.91519,3.43313 2.94817,6.21839 4.01943,9.35761 4.7435,8.14907 9.20729,16.47854 14.28412,24.42379 2.46426,1.99031 3.90024,-1.69468 3.19541,-3.73936 -0.3588,-10.28368 -0.57738,-20.68174 -1.22057,-30.88625 -0.0606,-0.90872 -1.0171,-1.00319 -1.68638,-1.22798 z"
     id="path5385"
     transform="scale(0.75000046)" />
  <path
     style="fill:#008000;stroke-width:0.810188"
     d="m 334.927,190.62257 c -4.24866,0.87681 -7.80715,5.0231 -8.60782,9.24597 -1.05673,7.46284 8.40783,14.2558 14.75728,9.42139 6.17579,-3.58645 6.36396,-13.70769 -0.06,-17.12381 -1.84886,-1.02063 -3.98524,-1.51836 -6.08941,-1.54355 z"
     id="path5387"
     transform="scale(0.75000046)" />
  <path
     style="fill:#008000;stroke-width:0.810188"
     d="m 481.72748,234.65071 c -3.15326,1.8771 -6.21182,4.74265 -9.12587,6.44497 1.44183,-4.74732 -3.07996,-5.41567 -6.62277,-4.78251 -4.08545,-1.88284 -2.01026,5.5521 -3.75819,3.91008 -2.8445,-1.66894 -5.41985,-6.65005 -9.25657,-5.02153 -2.46594,1.60074 -5.13186,5.14299 -2.29242,7.72992 3.64785,5.6552 8.37345,10.84679 11.59949,16.59556 0.43988,8.11778 0.26183,16.38235 1.08767,24.40896 1.82379,2.00265 7.02321,1.76149 8.95125,0.0983 1.06435,-8.94966 -0.88391,-18.31711 2.32252,-26.98173 3.16722,-5.80415 10.7142,-9.54167 10.87193,-16.73528 -0.42228,-2.05481 -0.73352,-6.33028 -3.77704,-5.66673 z"
     id="path5389"
     transform="scale(0.75000046)" />
  <path
     style="fill:#008000;stroke-width:0.810188"
     d="m 466.01534,295.90274 c -1.806,2.18688 -2.79262,6.56379 -6.6157,5.93635 -2.07451,-0.53539 -6.32852,-0.69302 -5.24523,2.66205 1.79931,3.12295 3.2517,7.11673 0.6271,10.28835 -3.24198,3.21578 0.44712,5.8373 3.86461,4.69617 3.70299,-0.82142 5.40609,2.57221 7.2715,4.94853 3.09159,2.10905 4.60354,-2.37331 4.87435,-4.72129 0.33053,-2.88358 4.42808,-0.39482 6.53564,-0.96428 2.24829,0.50301 4.72653,-1.45481 3.34494,-3.7841 -1.7772,-3.10087 -1.63097,-6.64329 0.33908,-9.61449 1.48569,-2.19781 -0.81907,-4.67259 -3.16833,-3.67578 -2.28938,0.31529 -4.54835,0.98259 -6.80172,1.36105 -1.38167,-2.24817 -1.66795,-7.60263 -5.02624,-7.13256 z"
     id="path5391"
     transform="scale(0.75000046)" />
  <path
     style="fill:#008000;stroke-width:0.810188"
     d="m 463.56992,336.77902 c -1.31946,4.42556 -0.34751,9.29648 -0.94661,13.9131 -0.6046,4.20473 0.43405,9.03333 -1.33423,12.80909 -3.9497,5.5467 -9.02434,10.52666 -12.27093,16.42773 1.52546,2.70571 4.16957,5.52465 6.96591,7.08301 2.73127,-0.66198 5.47796,-5.93493 6.98893,-5.59256 -0.66557,4.6076 5.07875,2.87144 7.8284,3.17069 3.45211,0.43407 0.37301,-7.12642 2.64204,-4.75191 2.90543,3.2897 8.01543,6.81355 12.31069,3.91244 2.08019,-2.84925 -1.95785,-5.61665 -2.96835,-8.15085 -2.78228,-4.58833 -6.43238,-8.85856 -8.73355,-13.5923 -0.54994,-8.03203 -0.47753,-16.22046 -1.41023,-24.15639 -1.66822,-2.02772 -6.59303,-1.55953 -9.07207,-1.07205 z"
     id="path5393"
     transform="scale(0.75000046)" />
  <path
     style="fill:#008000;stroke-width:0.810188"
     d="m 543.66946,321.24114 c -0.63409,3.01463 -1.41369,7.62149 0.56919,10.00881 6.72007,0.53468 13.81672,0.40045 20.556,0.06 2.39289,-2.15327 1.14868,-6.94939 0.77971,-9.91468 -4.23696,-1.57705 -9.40144,-0.25029 -13.99526,-0.6875 -2.59784,0.24554 -5.4951,-0.55616 -7.90964,0.53336 z"
     id="path5395"
     transform="scale(0.75000046)" />
  <path
     style="fill:#008000;stroke-width:0.810188"
     d="m 543.66946,302.55376 c -0.51663,2.69874 -1.83651,7.76443 1.27863,9.09526 6.82462,-0.33593 13.92077,0.68445 20.56883,-0.53336 0.51663,-2.69874 1.83651,-7.76442 -1.27863,-9.09526 -6.81136,0.33657 -13.9404,-0.68527 -20.56883,0.53336 z"
     id="path5397"
     transform="scale(0.75000046)" />
  <path
     style="fill:#008000;stroke-width:0.810188"
     d="m 555.17482,272.99563 c -5.81726,0.10665 -10.55559,6.90504 -7.51522,12.22591 2.11294,4.17215 8.49818,6.43889 12.03047,2.59377 5.60362,-3.71714 3.73038,-13.78939 -3.11064,-14.7149 -0.46331,-0.08 -0.93465,-0.11332 -1.40461,-0.10478 z"
     id="path5399"
     transform="scale(0.75000046)" />
  <path
     style="fill:#008000;stroke-width:0.810188"
     d="m 554.55434,246.47514 c -7.01456,0.0845 -10.71481,10.41806 -4.85434,14.64425 5.66261,5.32316 15.87239,-2.11897 12.80165,-9.13529 -1.12091,-3.2936 -4.44769,-5.66561 -7.94731,-5.50896 z"
     id="path5401"
     transform="scale(0.75000046)" />
  <path
     style="fill:#008000;stroke-width:0.810188"
     d="m 553.73253,220.08769 c -6.54691,0.63127 -10.00208,10.89029 -3.8418,14.55006 4.87466,3.90131 12.72924,0.24579 12.93941,-5.97756 1.07282,-4.782 -3.33653,-8.80792 -7.95438,-8.54071 -0.38033,-0.0263 -0.76192,-0.0458 -1.14323,-0.0318 z"
     id="path5403"
     transform="scale(0.75000046)" />
  <path
     style="fill:#008000;stroke-width:0.810188"
     d="m 605.8787,220.05001 c -7.1622,-0.022 -10.39772,11.53869 -3.73701,14.8503 4.91721,3.51398 12.51861,-0.0766 12.67921,-6.20597 0.53451,-4.98458 -4.08157,-9.10001 -8.9422,-8.64433 z"
     id="path5405"
     transform="scale(0.75000046)" />
  <path
     style="fill:#008000;stroke-width:0.810188"
     d="m 606.14596,246.86956 c -4.85592,-0.48133 -8.10507,4.95126 -7.72597,9.2283 0.86004,4.97202 6.15472,7.96092 10.89312,6.3402 6.85358,-1.78579 7.58443,-13.1244 0.65581,-15.31772 -1.24837,-0.3032 -2.54876,-0.25201 -3.82296,-0.25078 z"
     id="path5407"
     transform="scale(0.75000046)" />
  <path
     style="fill:#008000;stroke-width:0.810188"
     d="m 606.26017,273.06509 c -6.52332,-0.13699 -10.86635,8.81384 -5.95755,13.50808 2.56787,3.20692 7.20721,4.40063 10.66354,1.80846 5.88294,-3.09578 5.06517,-13.54797 -1.8014,-14.89739 -0.93796,-0.2921 -1.92161,-0.44216 -2.90459,-0.41915 z"
     id="path5409"
     transform="scale(0.75000046)" />
  <path
     style="fill:#008000;stroke-width:0.810188"
     d="m 595.51186,302.55376 c -0.51662,2.69874 -1.8365,7.76443 1.27864,9.09526 6.82462,-0.33593 13.92077,0.68445 20.56883,-0.53336 0.51663,-2.69874 1.83651,-7.76442 -1.27863,-9.09526 -6.81137,0.33657 -13.9404,-0.68527 -20.56884,0.53336 z"
     id="path5411"
     transform="scale(0.75000046)" />
  <path
     style="fill:#008000;stroke-width:0.810188"
     d="m 595.51186,321.24114 c -0.63408,3.01463 -1.41368,7.62149 0.5692,10.00881 5.88432,0.35641 12.24214,0.87149 18.04989,-0.80523 3.68559,-1.17479 4.97927,-6.8983 2.65918,-9.44486 -6.72006,-0.53467 -13.81671,-0.40044 -20.55599,-0.06 l -0.55636,0.23208 z"
     id="path5413"
     transform="scale(0.75000046)" />
  <path
     style="fill:#008000;stroke-width:0.810188"
     d="m 554.65441,394.40354 c -4.22796,0.63749 -7.84211,3.8992 -10.25027,7.26915 -1.15785,4.16075 3.74633,6.67204 6.23658,9.14824 3.76244,3.31145 8.57038,0.20018 11.48182,-2.64204 2.87046,-1.59391 4.11366,-5.58044 1.30218,-7.88138 -2.41432,-2.47055 -4.92951,-5.96183 -8.77031,-5.89397 z"
     id="path5415"
     transform="scale(0.75000046)" />
  <path
     style="fill:#008000;stroke-width:0.810188"
     d="m 606.94187,394.25873 c -4.79028,0.93613 -8.90049,4.78265 -11.35626,8.76426 1.54933,3.34869 4.88765,6.14104 7.89829,8.43962 5.01853,2.9068 9.6789,-2.34378 12.77576,-5.73738 2.87097,-3.19013 -1.80023,-6.26093 -3.67696,-8.50775 -1.53064,-1.47889 -3.35514,-3.10833 -5.64083,-2.95875 z"
     id="path5417"
     transform="scale(0.75000046)" />
  <path
     style="fill:#008000;stroke-width:0.810188"
     d="m 543.66946,446.62742 c -0.51663,2.69874 -1.83651,7.76443 1.27863,9.09526 6.82462,-0.33592 13.92077,0.68446 20.56883,-0.53335 0.51663,-2.69874 1.83651,-7.76443 -1.27863,-9.09526 -6.81136,0.33656 -13.9404,-0.68528 -20.56883,0.53335 z"
     id="path5419"
     transform="scale(0.75000046)" />
  <path
     style="fill:#008000;stroke-width:0.810188"
     d="m 595.51186,446.62742 c -0.51662,2.69874 -1.8365,7.76443 1.27864,9.09526 6.82462,-0.33592 13.92077,0.68446 20.56883,-0.53335 0.51663,-2.69874 1.83651,-7.76443 -1.27863,-9.09526 -6.81137,0.33656 -13.9404,-0.68528 -20.56884,0.53335 z"
     id="path5421"
     transform="scale(0.75000046)" />
  <path
     style="fill:#008000;stroke-width:0.810188"
     d="m 543.66946,177.16747 c -0.51663,2.69874 -1.83651,7.76443 1.27863,9.09526 6.82462,-0.33593 13.92077,0.68446 20.56883,-0.53335 0.51663,-2.69874 1.83651,-7.76443 -1.27863,-9.09526 -6.81136,0.33656 -13.9404,-0.68528 -20.56883,0.53335 z"
     id="path5423"
     transform="scale(0.75000046)" />
  <path
     style="fill:#008000;stroke-width:0.607641"
     d="m 446.80842,132.82919 c -0.38747,2.02406 -1.37738,5.82333 0.95897,6.82145 5.11847,-0.25195 10.44059,0.51335 15.42663,-0.40001 0.38748,-2.02406 1.37739,-5.82333 -0.95897,-6.82145 -5.10852,0.25242 -10.45531,-0.51396 -15.42663,0.40001 z"
     id="path5423-3" />
  <path
     style="fill:#000000;stroke-width:0.0179028"
     d="m 284.31156,169.4359 c -0.26483,0.0541 -0.46593,0.29724 -0.48114,0.56541 -0.16605,1.29602 -0.3317,2.59224 -0.48377,3.88993 -0.0234,0.28986 0.18823,0.57413 0.47467,0.62963 0.26012,0.0599 0.53419,-0.0817 0.66419,-0.30948 0.17395,-0.2683 0.37492,-0.5204 0.611,-0.73681 0.37171,0.007 0.6806,0.25846 0.92612,0.51362 0.16414,0.14936 0.28618,0.34064 0.45898,0.47995 0.24813,0.19205 0.64269,0.14246 0.82884,-0.11199 0.17425,-0.20851 0.16363,-0.52625 0.008,-0.74249 -0.78605,-1.30714 -1.5758,-2.61216 -2.3765,-3.91037 -0.13224,-0.20753 -0.38884,-0.31595 -0.63007,-0.2674 z"
     id="path5579"
     transform="scale(0.75000046)" />
  <path
     style="fill:#000000;stroke-width:0.0179028"
     d="m 81.842784,458.35057 c -0.211651,0.067 -0.381438,0.22168 -0.59023,0.29765 -0.211623,0.0946 -0.468964,0.142 -0.598307,0.35524 -0.173845,0.25522 -0.105729,0.63742 0.150741,0.81148 0.21001,0.16444 0.489293,0.10549 0.73608,0.11668 0.230706,-0.0131 0.474585,0.0384 0.693462,-0.0539 0.23951,-0.10413 0.376709,-0.36966 0.353371,-0.62557 -0.0036,-0.23395 0.03484,-0.50031 -0.132434,-0.69108 -0.139801,-0.18419 -0.389769,-0.26366 -0.612683,-0.2105 z"
     id="path5581"
     transform="scale(0.75000046)" />
  <path
     style="fill:#000000;stroke-width:0.0253184"
     d="m 64.144081,449.29415 c -0.488933,0.008 -0.980358,0.0232 -1.464919,0.0902 -0.335651,0.0755 -0.550902,0.46494 -0.424385,0.78738 0.09218,0.27627 0.390363,0.4267 0.670936,0.40483 0.93439,0.007 1.869091,0.0126 2.803379,-6.7e-4 0.342579,-0.0212 0.619208,-0.37034 0.543234,-0.70859 -0.04585,-0.29806 -0.334146,-0.49775 -0.624621,-0.50926 -0.498995,-0.0536 -1.00207,-0.0653 -1.503624,-0.0639 z"
     id="path5583"
     transform="scale(0.75000046)" />
  <path
     style="fill:#000000;stroke-width:0.00525"
     d="m 52.609879,449.01945 c -0.206239,0.019 -0.397228,0.15252 -0.483967,0.34086 -0.0501,0.10098 -0.06217,0.2153 -0.05794,0.32664 0.0018,0.1231 -0.0039,0.24651 0.0034,0.3694 0.01977,0.21882 0.170954,0.41884 0.376185,0.49736 0.09796,0.0415 0.205682,0.0451 0.310486,0.0423 0.179607,-10e-4 0.359316,0.002 0.538856,-0.002 0.206506,-0.0158 0.399537,-0.14635 0.489179,-0.33333 0.09672,-0.19143 0.07778,-0.43386 -0.04655,-0.60851 -0.06801,-0.0993 -0.168252,-0.17191 -0.277806,-0.2195 -0.149001,-0.0694 -0.285005,-0.16414 -0.406804,-0.27412 -0.122067,-0.10388 -0.285609,-0.15431 -0.445027,-0.13898 z"
     id="path5585"
     transform="scale(0.75000046)" />
  <path
     style="fill:#ffffff;stroke-width:1.344"
     d="m 77.390625,174.97656 c -4.758177,1.76975 -2.211518,8.62976 -3.102784,12.51932 -0.23867,11.07137 -0.279354,22.24565 -0.590575,33.25021 -2.792601,4.06937 -0.532382,10.1397 -1.275638,14.90818 0.342119,11.76529 -0.03483,23.12574 -1.296628,34.71487 -0.129051,30.24041 -1.130653,60.6556 -1.460938,90.78125 -2.751734,5.36619 -0.670583,12.27575 -1.311795,18.18742 -0.377198,6.27894 1.236411,13.09812 -0.918673,18.81258 -0.966239,11.96642 1.023731,24.27434 -1.279297,36.04883 -4.443912,3.33867 -12.519253,-1.98553 -15.654297,2.83789 -0.448478,4.84787 0.642371,9.9952 0.480469,14.45117 4.392322,3.03963 11.59098,0.1353 15.802734,2.03125 -0.05102,7.07544 8.672817,7.91115 13.951172,7.39258 5.766959,2.77319 2.499873,-7.19635 5.224609,-7.91211 24.286556,-0.27901 48.814166,0.5546 72.951346,-0.41389 2.50491,-4.27143 0.37348,-10.65071 1.08967,-15.70916 -3.60163,-4.4094 -11.65466,-0.7998 -17.01149,-1.91736 -18.91432,-0.26262 -37.92614,0.99465 -56.783432,-0.50842 -1.297167,-20.12028 -0.03813,-40.35765 -0.132812,-60.51562 3.465494,-3.35099 1.135892,-9.51489 1.951172,-13.87305 0.232866,-19.34004 -0.817612,-38.98786 0.355468,-58.15625 2.742816,-6.50928 0.85977,-14.2971 1.484888,-21.25976 0.325377,-32.93588 0.109715,-65.95396 3.009244,-98.73397 2.531524,-6.31963 -3.526769,-6.6701 -7.947257,-5.21135 -3.162863,1.17944 -4.38799,-2.33318 -7.535156,-1.72461 z m -5.148437,86.42383 c 0.01069,-0.0375 0.124569,-0.16029 0,0 z m 14.310546,40.94922 c -0.03068,0.0193 -0.150745,-0.0294 0,0 z M 64.234375,448.66992 c 1.087886,5.09223 -2.129009,-0.46467 0,0 z m 16.113281,11.57031 c -0.04925,-0.0164 -0.106793,-0.2795 0,0 z"
     id="path9736"
     transform="scale(0.75000046)" />
  <path
     style="fill:#ffffff;stroke-width:1.344"
     d="m 284.83398,172.03906 c -5.08253,2.31966 -3.63742,9.09233 -4.44336,13.5 -2.24323,10.35423 -2.84999,21.08036 -3.85351,31.58594 -2.54429,3.18517 0.51696,7.54694 -1.97266,10.64258 -0.24408,3.12099 0.72634,6.02797 -1.04101,8.60351 -0.16938,3.55535 0.94825,6.97746 -1.20117,9.85938 -0.60749,21.90682 -2.14943,43.63863 -3.01148,65.65259 -1.02549,9.02728 0.9586,18.47129 -1.9104,27.12085 -0.87708,19.80161 -0.70832,39.83952 -1.56445,59.46679 -3.95938,3.41664 -0.447,9.81455 -1.28691,14.19528 0.4115,12.93055 -3.72114,26.76313 1.40605,39.1309 3.57287,2.44482 10.06093,6.50958 13.88672,2.57617 0.9193,-3.77325 -0.19694,-7.66549 1.51953,-11.31446 0.83211,-4.58795 -1.20211,-10.01546 0.18554,-14.12695 3.07665,-5.95136 -0.89716,-13.60515 1.00977,-19.73633 2.81852,-8.05154 0.57711,-17.12814 1.47774,-25.56177 0.97025,-27.00557 2.66809,-54.1443 3.2664,-81.19604 2.83371,-7.84884 0.47646,-16.86081 1.61958,-25.05738 0.92112,-8.00222 0.38428,-16.51596 1.75151,-24.21801 2.35279,-3.56619 -1.27502,-8.40455 1.89454,-11.42969 -0.56177,-4.60748 0.0332,-9.01 0.97656,-13.54687 0.66211,-3.471 -0.11055,-9.56278 1.03906,-11.48243 -0.13956,2.87464 3.71239,4.13401 3.12891,7.17969 9.63609,12.7439 16.91021,27.44222 25.2749,41.14279 3.91705,6.31495 7.23932,13.28312 10.73682,19.61698 2.94562,2.45219 2.79006,6.7225 5.64453,9.26953 -0.0884,4.39017 5.80438,6.14837 5.11133,10.89258 1.49573,2.77782 5.73936,4.62244 4.74023,8.57226 3.00256,2.30035 5.11476,6.02728 5.44922,9.78516 3.93263,1.68036 3.81489,6.7078 5.66797,9.5293 3.31603,1.68216 3.38371,6.2096 4.89844,8.85351 1.93378,2.93519 -0.68468,8.05187 0.29101,11.78125 2.78006,8.25333 0.63814,17.49451 1.90503,26.14851 1.28561,12.07452 -0.025,24.35471 1.31958,36.37884 2.70255,3.84454 -0.1607,9.57241 0.69141,14.24023 0.13535,3.931 2.54885,7.22198 1.21679,11.35352 -1.01411,4.43186 0.55361,8.48804 1.3418,12.61718 -1.19328,5.98281 6.73442,10.44694 10.83984,5.94922 2.20693,-0.66982 5.77716,1.14506 5.93164,-2.49414 0.22917,-3.50964 0.68409,-7.70471 -1.57031,-10.45312 -1.18808,-17.70502 0.83678,-35.59332 -1.0332,-53.21485 -2.7478,-6.68227 -0.48342,-14.72839 -1.44125,-21.91728 -0.97503,-14.36807 -0.33777,-28.8066 -1.4982,-43.13155 -2.66626,-4.71732 -0.41546,-11.37511 -1.41767,-16.83868 -1.14334,-15.76998 -0.32416,-31.62515 -1.32843,-47.38202 -3.07537,-3.85532 -0.52797,-9.82373 -1.39598,-14.5975 -0.59014,-22.34377 -1.42387,-45.45944 -3.08058,-67.28922 0.70974,0.4422 0.52272,-3.94863 -2.0625,-3.34961 -4.94221,-0.0857 -10.22376,-1.05699 -14.9375,0.33008 -0.72341,18.48825 1.16478,37.33978 1.76974,55.95577 1.16735,20.88262 1.84647,42.74423 2.87088,63.10283 -2.24698,-2.00507 -3.40733,-5.28751 -5.05468,-7.5625 -0.0132,-3.2465 -4.19066,-4.66023 -5.07227,-7.96485 -1.34339,-3.15313 -3.15562,-6.35721 -4.92773,-9.03515 0.0769,-3.22866 -4.10028,-4.5125 -4.92969,-7.76563 -1.93551,-2.955 -1.99893,-6.57524 -4.97266,-8.69727 -3.19098,-3.53799 -3.28237,-8.78753 -6.83203,-11.77929 -3.4995,-5.45698 -5.68378,-11.47746 -9.74444,-16.60974 -11.89658,-18.71447 -21.94027,-38.85115 -35.24189,-56.65784 -0.55169,-0.48422 -1.29641,-0.77314 -2.03711,-0.62305 z m 10.32813,43.59571 c 0.17778,-0.42079 1.42952,-0.6293 0,0 z m 42.70508,71.51757 c 0.006,-0.076 0.37739,-0.15276 0,0 z m -51.07422,15.55469 c -0.55914,0.28804 0.17086,-0.13965 0,0 z"
     id="path9738"
     transform="scale(0.75000046)" />
  <path
     style="fill:#ffffff;stroke-width:1.344"
     d="m 195.35937,175.68555 c -1.04649,6.20315 0.22823,12.76862 0.0762,19.11132 -8.99271,0.36505 -18.37392,-1.19003 -27.17188,0.82813 -3.34339,3.95805 -0.21456,10.35507 -2.73633,14.14258 4.00233,3.81687 11.36933,0.84685 16.67188,1.98047 5.53148,0.8464 15.58032,-2.74303 12.80155,6.26365 0.16399,68.32944 0.32922,136.65887 0.49532,204.9883 -9.23882,0.48142 -18.88999,-0.94032 -27.88086,0.68555 -0.40544,4.64637 -4.14628,11.97294 0.88282,15.34179 8.58649,2.15439 17.72387,0.37672 26.50195,0.97266 0.96103,5.36222 -2.00432,12.82835 1.62205,16.85848 5.11957,-0.72902 12.9578,2.33022 16.37795,-1.85848 1.51291,-4.48709 -3.28788,-15.28788 3,-15 8.28317,-0.47205 16.97396,0.93724 25.00781,-0.68555 0.013,-4.84486 1.22865,-12.21189 -2.25451,-15.76822 -8.14458,-0.96829 -17.11356,-0.50186 -24.7865,-2.56967 -0.44276,-67.7294 -1.20707,-135.61712 -0.36914,-203.25781 0.0849,-2.8035 -0.36084,-6.66535 3.73828,-6.0625 7.70288,-1.076 15.92208,-0.40919 23.28125,-2.64844 -0.0235,-4.33299 2.29019,-11.9845 -2.88672,-14.39062 C 229.5343,193.64047 221.23663,194.14239 213,194 c -0.45301,-6.12063 0.90835,-12.63436 -0.68555,-18.50781 -5.28847,-0.64892 -11.76785,-1.10103 -16.95508,0.19336 z"
     id="path9740"
     transform="scale(0.75000046)" />
  <path
     style="fill:#ffffff;stroke-width:1.344"
     d="m 431.0293,175.01562 c -6.76684,-0.19874 -4.17222,8.61862 -4.68398,12.71036 -0.11061,9.0913 -0.2166,18.18266 -0.32188,27.27402 -4.59529,1.26524 -13.76895,-2.96915 -15.02344,3 -0.91301,6.21681 -0.31015,13.6577 8,11 2.87068,0.37245 8.73879,-1.44504 7.39214,3.33592 0.0199,7.5483 -0.34547,15.05499 -0.55816,22.59963 -4.57756,0.9467 -9.81414,-0.53235 -13.89442,0.24966 -0.95191,3.00701 -2.07535,8.52173 1.31239,10.3226 3.51559,-1.82356 7.8674,0.34361 11.20703,1.29688 3.36317,5.34631 1.23148,12.44791 2.41797,18.48242 0.27685,2.73384 0.80482,7.6625 -3.49804,6.68359 C 419.18679,292.82518 410.43153,289.32642 411,296 c -1.48078,6.28227 1.1235,11.53748 8.0888,8.48235 6.18147,-1.45098 7.38946,6.36366 7.2163,10.78182 0.0389,5.14611 1.42559,10.77066 -0.14299,15.52685 -4.81911,1.23279 -11.53861,-1.75719 -15.02059,1.83103 0.13425,3.31583 -1.70574,11.82531 3.96004,11.18068 2.50215,-0.47102 6.06564,0.27945 8.99219,0.64454 2.95487,5.96562 2.42921,13.81547 1.71875,20.55859 -0.29593,3.0993 -1.88231,5.77725 -5.31641,5.22852 -2.78234,1.12996 -5.27983,1.24433 -7.84961,0.55468 -2.49807,2.41823 -1.89292,7.16832 -0.60742,10.09375 2.92697,0.24326 6.19081,-0.0187 9.44743,1.12829 2.92352,-0.41823 2.69232,1.76468 3.83578,3.52796 1.80303,4.47352 0.79763,10.66415 1.55664,15.7461 0.18711,2.68323 0.8762,7.70623 -3.5,6.68554 C 419.18679,408.82518 410.43153,405.32642 411,412 c -1.06827,5.49578 0.34895,11.74368 7.26367,8.57617 2.66338,-0.65133 5.02314,0.77313 6.6836,2.47266 1.93572,6.25046 2.47729,13.45658 1.20117,19.77539 -4.64807,-1.39937 -9.23805,2.00024 -13.5,0.99609 -2.85313,4.16768 -1.04708,10.20034 -1.24414,15.08008 0.54666,3.6772 4.20412,1.45352 6.67578,2.74805 3.42921,-0.58869 6.66707,-1.64142 10.14844,-1.33203 2.318,-1.90343 5.34456,-0.13129 7.68554,-2.18555 22.66523,-5.91242 42.72355,-20.5059 55.29688,-40.29102 13.87624,-20.32874 23.39329,-43.4028 29.14453,-67.25976 1.71544,-1.80214 0.61875,-4.1608 2.20117,-6.01367 -0.90708,-3.00868 2.14035,-5.04835 0.69141,-8.23438 2.28595,-18.72743 1.12569,-37.93063 1.16394,-56.8355 0.36011,-5.36967 -1.15801,-9.99751 -1.86121,-15.07661 -0.30185,-2.11175 -0.11578,-4.23429 -1.32031,-6.18555 0.82543,-2.5963 -1.51843,-4.14698 -1.00391,-6.76367 -5.78852,-12.35847 -9.17847,-26.07112 -17.26683,-37.37225 -9.35932,-14.54815 -23.69573,-25.48858 -39.282,-32.40118 -1.9853,-1.65416 -4.97657,-1.8078 -7.34765,-2.17969 -1.89206,-1.3997 -4.11673,-0.49795 -5.99414,-1.92578 -2.61115,0.31586 -4.37425,0.0948 -6.56055,-1.03125 -3.32095,0.65319 -6.06162,0.0337 -8.98828,-1.32422 -1.23709,-0.23749 -2.50252,-0.26421 -3.75781,-0.22071 z m 12.58593,18.84961 c 2.77241,-0.0451 4.8014,0.58031 7.05079,1.80469 2.56851,-0.49058 5.17435,1.0558 7.59765,1.60938 2.527,2.57066 6.33053,2.01965 8.74414,4.82617 2.26068,0.87994 4.03656,2.37009 6.37696,3.40039 11.44465,9.32787 20.40093,21.59855 25.06445,35.55859 1.84029,2.77653 1.23386,6.53038 3.1875,9.20117 -0.51021,2.32816 1.18455,4.12524 1.70508,6.37696 0.0775,1.60572 0.70829,3.59664 1.37695,5.08594 -0.48233,3.41701 2.24909,6.07033 1.53711,9.70312 2.84233,24.48641 3.4227,49.65281 -1.89063,73.91016 -1.61423,3.38999 -0.84164,7.37094 -2.9082,10.34179 0.48745,1.83303 -1.14963,3.55528 -1.32617,5.25391 -0.99971,2.68047 -1.27862,5.90013 -2.53125,8.4707 -1.63095,2.99819 -2.80561,5.87639 -3.24609,9.54688 -1.3372,2.2423 -2.93958,4.22384 -2.88868,7.08203 -2.45196,3.05156 -3.90544,6.55392 -5.28906,10.37695 -1.28558,1.70692 -2.71175,3.19309 -3.41797,4.92774 -1.53719,3.03827 -3.60733,5.80998 -5.76367,8.6875 -4.28174,6.27378 -10.32658,11.87883 -16.24023,16.5957 -3.0858,1.68223 -5.6756,4.01106 -8.73633,5.73047 -2.83574,-0.25046 -4.37872,3.91687 -7.32227,3.10547 -1.43915,-80.52623 -0.7792,-161.07684 -1.17969,-241.61328 z m -28.38281,61.52149 c 0.11365,0.15738 -0.16758,-0.18152 0,0 z m 10.79297,39.20703 c 1.14495,5.62796 -3.01252,-0.6345 0,0 z m 93.64063,56.30859 c -0.38472,0.11725 0.13783,-0.0669 0,0 z m -42.7793,61.28321 c -0.0929,-0.0798 -0.0584,-0.52655 0,0 z m -14.73438,14.66406 c 0.5365,0.2476 -0.24992,-0.0599 0,0 z"
     id="path9744"
     transform="scale(0.75000046)" />
  <path
     style="fill:#ffffff;stroke-width:1.344"
     d="m 572.56641,176.68555 c -1.2462,5.75087 -0.50988,11.9094 -1.00586,17.81445 -9.03716,0.46169 -18.46615,-0.95701 -27.29883,1.125 -2.607,3.6635 -1.87966,9.31239 -1.0957,13.36523 9.41741,1.31599 19.25593,0.51795 28.83398,1.02539 0,70.9948 0,141.98959 0,212.98438 -9.42076,0.46804 -19.2447,-0.92482 -28.41797,0.68555 -0.83655,4.13567 -3.85412,11.72213 1.26172,14.24023 8.94559,1.41217 18.12504,0.59282 27.15625,1.08984 0.9664,5.37348 -2.01459,12.91205 1.6301,16.91626 4.61768,-0.81455 11.76325,1.62142 14.86599,-2.30688 1.80618,-4.23832 -2.37402,-14.63405 3.88497,-14.29207 8.5647,-0.74887 17.58694,0.31166 25.86503,-1.57121 -0.20298,-4.22676 2.78648,-13.16168 -2.7088,-14.28052 -8.84575,-0.16669 -17.69151,-0.33247 -26.53729,-0.49682 0,-70.9948 0,-141.98959 0,-212.98438 9.66357,-0.45014 19.71795,0.90348 29.13477,-0.68555 1.07989,-4.82145 2.58556,-14.15667 -4.74024,-14.82422 C 605.30572,193.5544 597.12401,194.20439 589,194 c -0.93465,-5.70933 1.95881,-13.47063 -1.62205,-17.85848 -4.80588,0.12012 -10.22121,-0.93925 -14.81154,0.54403 z"
     id="path9746"
     transform="scale(0.75000046)" />
  <path
     style="fill:#aaffaa;fill-opacity:1;stroke-width:0.237588"
     d="m 53.437316,397.89707 c -2.334793,0.0916 -4.108347,2.58653 -3.591467,4.84236 0.383531,3.85273 1.69692,7.60581 1.647614,11.49705 -0.424251,3.25267 -1.773214,6.37824 -1.806437,9.67887 -0.104,1.94916 1.561919,3.44862 3.393975,3.69816 2.880725,0.36178 5.536782,-1.26558 7.863874,-2.7593 2.772294,-1.9366 5.080127,-4.71099 5.803174,-8.0776 1.460803,-5.59303 -1.03849,-11.64852 -5.383752,-15.27354 -2.229059,-1.87048 -4.993355,-3.35968 -7.926981,-3.606 z"
     id="path14001"
     transform="scale(0.75000046)" />
  <path
     style="fill:#aaffaa;fill-opacity:1;stroke-width:0.237588"
     d="m 52.539277,342.89258 c -2.3653,-0.0577 -3.346098,2.67527 -3.253796,4.6542 0.103992,3.92633 2.256622,7.3263 3.776185,10.8186 0.749099,1.84011 -0.960062,3.43011 -1.596169,5.02501 -1.453483,2.69369 -1.776146,5.92045 -1.249176,8.90168 0.603007,2.356 3.291793,3.83347 5.605754,3.0273 6.811368,-1.74236 12.571084,-7.88302 13.018628,-15.02913 0.454045,-6.24207 -3.574019,-12.06615 -8.909605,-14.99149 -2.259351,-1.26017 -4.761494,-2.38246 -7.391821,-2.40617 z"
     id="path14003"
     transform="scale(0.75000046)" />
  <path
     style="fill:#aaffaa;fill-opacity:1;stroke-width:0.237588"
     d="m 53.530193,287.91917 c -2.146835,-0.17387 -3.961133,1.82945 -3.727502,3.94088 0.258176,2.77218 1.887065,5.15449 2.607341,7.80812 0.667165,2.00057 1.756269,3.96994 1.996667,6.04878 -1.440282,4.3067 -3.553605,8.41449 -4.49663,12.87229 -0.322405,2.29714 1.980522,4.20391 4.182909,3.86388 4.370589,-0.74075 8.715244,-2.71855 11.664845,-6.11088 2.352743,-2.8217 3.918704,-6.46608 3.668836,-10.19158 0.162019,-2.82054 -0.242905,-5.66876 -1.443935,-8.24326 -2.072692,-4.82958 -6.393561,-8.91051 -11.717326,-9.70476 -0.901605,-0.16738 -1.815965,-0.2998 -2.735205,-0.28347 z"
     id="path14005"
     transform="scale(0.75000046)" />
  <path
     style="fill:#aaffaa;fill-opacity:1;stroke-width:0.237588"
     d="m 52.607985,232.0895 c -2.445143,0.16003 -3.621159,3.0213 -3.273131,5.18453 0.360788,3.17233 1.570186,6.26929 3.759212,8.63256 1.202499,1.58663 2.808048,3.10533 3.182035,5.13185 0.140243,0.89989 0.112494,1.79884 -0.605253,2.459 -2.265221,3.06829 -5.317455,5.90719 -5.894001,9.8693 -0.653054,2.06919 -0.848614,4.72751 0.990865,6.27227 1.579048,1.56753 3.945738,0.6068 5.759399,0.0597 5.304225,-1.80578 10.054178,-5.54841 12.584636,-10.599 3.40659,-6.81173 1.789976,-15.72209 -3.842979,-20.8664 -3.433021,-3.25603 -7.917653,-5.65852 -12.660783,-6.14384 z"
     id="path14007"
     transform="scale(0.75000046)" />
  <path
     style="fill:#aaffaa;fill-opacity:1;stroke-width:0.237588"
     d="m 52.732626,177.46585 c -2.008298,-0.085 -3.447467,1.80579 -3.460956,3.69436 -0.08754,2.43571 -0.327304,4.94873 0.239961,7.33864 1.265582,2.97444 5.043088,3.40977 6.841465,5.94032 1.841419,2.14254 1.66064,6.18213 -1.13869,7.43291 -1.905352,1.2987 -4.554345,1.9256 -5.618185,4.15391 -0.767189,2.44732 -0.353861,5.07765 -0.378758,7.60243 -0.01847,1.84041 0.651003,4.0586 2.675474,4.52956 2.949459,0.64093 5.783683,-0.92794 8.463961,-1.94176 6.379067,-2.57748 10.854023,-8.83524 11.985167,-15.52426 0.140209,-3.24444 0.398876,-6.65105 -0.987396,-9.69175 -2.949586,-7.5545 -10.448433,-13.2428 -18.622043,-13.53436 z"
     id="path14009"
     transform="scale(0.75000046)" />
  <path
     style="fill:#aaffaa;fill-opacity:1;stroke-width:0.237588"
     d="m 182.49432,174.45547 c -4.88017,0.0845 -9.77322,-0.0302 -14.6445,0.27103 -2.02825,0.34092 -2.71059,2.56395 -2.6627,4.35796 0.0597,2.3442 -0.34616,4.81133 0.45472,7.06209 0.96124,2.02956 3.44186,2.17906 5.39512,2.11909 5.35961,-0.0354 10.73259,0.14383 16.08359,-0.18974 1.95218,-0.0206 3.41008,-1.71043 3.64222,-3.55935 0.1418,-2.27295 0.14315,-4.50666 -0.0767,-6.76482 -0.30127,-2.25967 -2.68993,-3.23182 -4.71945,-3.22618 -1.15568,-0.0752 -2.31481,-0.0714 -3.47235,-0.0701 z"
     id="path14011"
     transform="scale(0.75000046)" />
  <path
     style="fill:#aaffaa;fill-opacity:1;stroke-width:0.237588"
     d="m 234.52467,174.45547 c -4.87694,0.0864 -9.76871,-0.0433 -14.63518,0.29416 -2.05448,0.32709 -2.79063,2.55895 -2.72692,4.38282 0.0571,2.28267 -0.3015,4.66918 0.41985,6.87358 0.86676,1.98715 3.24629,2.35088 5.16865,2.24665 5.7264,-0.0162 11.46556,0.076 17.18324,-0.22408 2.26979,-0.60839 3.11796,-3.24159 2.89334,-5.36545 -0.20821,-2.19529 0.49598,-4.73306 -0.96709,-6.64362 -1.83447,-1.97193 -4.92535,-1.42993 -7.33589,-1.56406 z"
     id="path14013"
     transform="scale(0.75000046)" />
  <path
     style="fill:#aaffaa;fill-opacity:1;stroke-width:0.237588"
     d="m 177.6989,218.17662 c -3.68708,-0.16569 -6.8084,2.61778 -8.53776,5.64926 -1.592,2.71328 -2.04403,6.28108 -0.30625,9.04323 2.71596,4.98853 9.80848,7.08803 14.69284,4.04205 2.92783,-1.74887 4.93679,-4.90896 5.08509,-8.33648 0.37562,-3.62873 -1.46038,-7.43171 -4.7693,-9.09341 -1.61221,-1.03115 -3.50889,-1.46015 -5.41124,-1.30603 -0.25113,4.6e-4 -0.50225,9.2e-4 -0.75338,0.001 z"
     id="path14015"
     transform="scale(0.75000046)" />
  <path
     style="fill:#aaffaa;fill-opacity:1;stroke-width:0.237588"
     d="m 229.25728,217.95185 c -6.89164,0.0233 -12.04103,8.40366 -9.02701,14.57649 1.8238,3.39764 5.45077,6.06285 9.43649,5.81188 5.58409,0.30446 10.72463,-4.69741 10.60695,-10.27826 0.0143,-5.12612 -4.44084,-9.50942 -9.43427,-10.01728 -0.5243,-0.0683 -1.05346,-0.1 -1.58216,-0.0928 z"
     id="path14017"
     transform="scale(0.75000046)" />
  <path
     style="fill:#aaffaa;fill-opacity:1;stroke-width:0.237588"
     d="m 177.31946,244.87232 c -3.50971,-0.2496 -6.34485,2.49877 -7.98465,5.32367 -1.93531,3.19003 -2.0056,7.59359 0.50616,10.50268 2.62598,3.17021 6.99351,4.81932 11.04786,3.94813 5.08902,-0.78216 8.36623,-6.25825 7.72811,-11.17008 -0.25698,-4.17748 -3.60062,-8.06425 -7.86001,-8.44316 -1.13821,-0.15921 -2.29025,-0.17214 -3.43747,-0.16124 z"
     id="path14019"
     transform="scale(0.75000046)" />
  <path
     style="fill:#aaffaa;fill-opacity:1;stroke-width:0.237588"
     d="m 229.57354,244.39931 c -3.88825,-2.5e-4 -7.50972,2.45715 -9.14025,5.95447 -1.69267,3.09522 -1.61619,7.09734 0.4889,9.97994 2.10508,3.03934 5.80427,5.13725 9.56666,4.59876 4.74639,-0.0852 9.0195,-3.93744 9.6433,-8.63217 0.69989,-3.96934 -1.10331,-8.29246 -4.64729,-10.32003 -1.76614,-1.07648 -3.84396,-1.62985 -5.91132,-1.58097 z"
     id="path14021"
     transform="scale(0.75000046)" />
  <path
     style="fill:#aaffaa;fill-opacity:1;stroke-width:0.237588"
     d="m 177.95854,271.10812 c -2.61695,-0.16865 -5.19756,0.89158 -6.992,2.79149 -3.55178,3.50863 -4.48655,9.80742 -1.09864,13.73886 2.09701,2.52984 5.31896,4.1771 8.65339,3.90072 4.91404,0.0768 9.51774,-3.86321 10.05249,-8.779 0.77963,-4.8288 -2.25648,-10.12077 -7.1087,-11.33373 -1.14182,-0.29539 -2.33386,-0.31533 -3.50654,-0.31834 z"
     id="path14023"
     transform="scale(0.75000046)" />
  <path
     style="fill:#aaffaa;fill-opacity:1;stroke-width:0.237588"
     d="m 229.98475,270.84952 c -6.63656,-0.0591 -12.2076,7.13257 -10.29965,13.53205 1.66066,5.83624 9.0581,9.01744 14.4943,6.42196 3.93458,-1.77984 6.54598,-6.11798 6.08706,-10.44363 -0.20199,-4.32955 -3.41857,-8.37738 -7.72638,-9.22657 -0.83638,-0.19564 -1.6962,-0.29432 -2.55533,-0.28381 z"
     id="path14025"
     transform="scale(0.75000046)" />
  <path
     style="fill:#aaffaa;fill-opacity:1;stroke-width:0.237588"
     d="m 183.44104,299.79601 c -5.65932,0.0758 -11.33512,-0.0511 -16.98334,0.28174 -2.19864,0.41218 -2.57508,2.98303 -2.64371,4.84099 0.0739,2.37886 -0.36296,5.04715 0.99299,7.15704 1.49144,1.98707 4.21788,1.34849 6.35705,1.50733 5.92415,-0.02 11.85664,0.0645 17.7747,-0.20395 2.37196,-0.37276 3.37702,-3.05471 3.15372,-5.19592 -0.17551,-2.22747 0.35037,-4.68576 -0.78554,-6.71959 -1.49021,-2.08799 -4.31796,-1.57177 -6.53107,-1.6674 -0.44493,-0.002 -0.88987,-1.3e-4 -1.3348,-2.4e-4 z"
     id="path14027"
     transform="scale(0.75000046)" />
  <path
     style="fill:#aaffaa;fill-opacity:1;stroke-width:0.237588"
     d="m 233.56863,299.79394 c -5.02104,0.0876 -10.06245,-0.0746 -15.06987,0.3028 -2.36607,0.6238 -2.77389,3.46128 -2.6703,5.54187 0.13753,1.98851 -0.17007,4.11678 0.60422,5.9935 1.15181,1.87788 3.51305,2.01422 5.48074,1.94921 6.34144,-0.0137 12.69187,0.0738 19.027,-0.20699 2.26639,-0.32923 3.35157,-2.80881 3.13399,-4.88657 -0.12756,-2.18103 0.27856,-4.48076 -0.48337,-6.57077 -0.96625,-2.1574 -3.60185,-2.08442 -5.60093,-2.11166 -1.47371,-0.0223 -2.94766,-0.0161 -4.42148,-0.0114 z"
     id="path14029"
     transform="scale(0.75000046)" />
  <path
     style="fill:#aaffaa;fill-opacity:1;stroke-width:0.237588"
     d="m 182.9625,318.51708 c -5.41818,0.0664 -10.84876,-0.0188 -16.25759,0.30487 -2.34453,0.38115 -2.89601,3.13454 -2.86709,5.12721 0.11276,3.24971 1.55564,7.00142 4.86205,8.16557 5.1334,2.00165 10.78825,1.53784 16.14088,0.91944 3.88885,-0.43438 6.66626,-4.05794 7.13219,-7.77462 0.13904,-1.75947 0.86973,-3.99287 -0.79438,-5.24628 -1.64913,-1.9497 -4.39285,-1.40115 -6.63474,-1.49688 -0.52711,2.3e-4 -1.05421,4.6e-4 -1.58132,6.9e-4 z"
     id="path14031"
     transform="scale(0.75000046)" />
  <path
     style="fill:#aaffaa;fill-opacity:1;stroke-width:0.237588"
     d="m 235.46034,318.50258 c -5.66974,0.0847 -11.35367,-0.0666 -17.01337,0.29969 -2.30799,0.43978 -2.79507,3.19211 -2.60366,5.1607 0.18775,3.29876 1.70854,6.79354 4.83374,8.26777 3.0505,1.63637 6.6354,1.0625 9.95222,1.15745 3.64517,-0.0834 7.75407,0.0178 10.65573,-2.57408 2.30437,-2.15872 3.14968,-5.59449 2.75799,-8.65792 -0.28284,-2.16468 -2.3389,-3.7637 -4.4952,-3.60907 -1.36155,-0.0558 -2.72507,-0.0428 -4.08745,-0.0445 z"
     id="path14033"
     transform="scale(0.75000046)" />
  <path
     style="fill:#aaffaa;fill-opacity:1;stroke-width:0.237588"
     d="m 111.18287,270.36753 c -1.88617,0.15973 -3.96038,-0.21731 -5.69759,0.67672 -1.9563,1.40121 -1.71903,4.1399 -1.78745,6.27108 -0.009,12.7641 -0.0427,25.53113 0.19371,38.29302 -0.13457,1.76466 0.84495,3.56072 2.59743,4.09541 2.61836,0.46379 5.33749,0.3575 7.97221,0.0611 1.95605,-0.33971 3.08565,-2.36749 2.92839,-4.24556 0.20035,-12.44486 0.10413,-24.89401 0.0971,-37.34043 -0.16675,-1.9386 0.29911,-4.06773 -0.60999,-5.86301 -1.1651,-2.05325 -3.64547,-1.98164 -5.6938,-1.94834 z"
     id="path14035"
     transform="scale(0.75000046)" />
  <path
     style="fill:#aaffaa;fill-opacity:1;stroke-width:0.237588"
     d="m 111.53332,330.46815 c -3.39227,0.0999 -6.82794,-0.17042 -10.1909,0.34216 -1.86633,0.24233 -2.663606,2.23095 -2.569003,3.90473 -0.143083,5.88582 -0.286833,11.78492 -0.01705,17.66824 -0.01057,1.54532 0.836093,3.1942 2.499393,3.42954 2.80328,0.57041 5.71138,0.29507 8.55778,0.42189 3.82568,-0.0599 7.6857,0.18561 11.48847,-0.28547 2.02471,-0.21498 2.92498,-2.35115 2.92367,-4.15568 0.16192,-5.96383 0.22628,-11.94512 -0.10255,-17.90312 -0.0524,-1.38084 -0.80616,-2.80894 -2.30653,-2.96516 -2.88668,-0.74484 -5.9216,-0.33163 -8.87079,-0.45772 -0.47083,2e-4 -0.94166,3.9e-4 -1.41249,5.9e-4 z"
     id="path14037"
     transform="scale(0.75000046)" />
  <path
     style="fill:#aaffaa;fill-opacity:1;stroke-width:0.237588"
     d="m 113.02142,365.07944 c -3.9406,0.0814 -7.90637,-0.10921 -11.83161,0.22062 -2.215001,0.44822 -2.551136,3.06164 -2.572625,4.93761 0.0791,2.46872 -0.21642,5.00889 0.355667,7.4271 0.751833,1.85531 2.890218,2.48901 4.733958,2.37923 6.71694,0.0398 13.4968,0.34047 20.15587,-0.72357 2.37859,-0.52684 4.90674,-0.9473 6.98626,-2.27922 1.5414,-1.64268 1.71958,-4.07469 2.1104,-6.19682 0.47441,-1.81449 0.0459,-4.02666 -1.73061,-4.97015 -2.18178,-1.15901 -4.77395,-0.60686 -7.14046,-0.78422 -3.68892,-0.0154 -7.37791,-0.0146 -11.06685,-0.0106 z"
     id="path14039"
     transform="scale(0.75000046)" />
  <path
     style="fill:#aaffaa;fill-opacity:1;stroke-width:0.237588"
     d="m 116.18027,389.312 c -4.91368,0.0703 -9.84586,-0.0937 -14.74808,0.19749 -2.024131,0.29852 -2.799317,2.47535 -2.724359,4.27876 0.06658,2.28036 -0.373542,4.70415 0.498077,6.87268 1.040412,2.029 3.555722,2.05758 5.530062,2.02644 10.30918,0.0384 20.62125,0.0673 30.9291,-0.10089 2.14768,0.20142 4.25434,-1.45272 4.36693,-3.64774 0.087,-2.34134 0.22637,-4.75264 -0.28691,-7.05277 -0.55304,-1.84278 -2.56324,-2.63615 -4.34544,-2.49691 -6.40478,-0.13075 -12.81352,-0.0601 -19.21938,-0.0771 z"
     id="path14041"
     transform="scale(0.75000046)" />
  <path
     style="fill:#aaffaa;fill-opacity:1;stroke-width:0.237588"
     d="m 112.40995,413.18169 c -3.69904,0.0858 -7.42531,-0.13957 -11.10689,0.25515 -2.24235,0.55469 -2.743543,3.12378 -2.695155,5.11237 0.100816,2.09338 -0.200512,4.3046 0.541034,6.30147 1.041711,1.90746 3.397971,2.31848 5.381661,2.15951 12.4784,-0.0121 24.95828,-0.038 37.43583,-0.17577 1.71402,0.0913 3.70681,-0.3824 4.45336,-2.11598 0.86343,-2.27163 0.43811,-4.78366 0.43356,-7.15761 0.0687,-1.94555 -1.18282,-4.0487 -3.27373,-4.18372 -6.57631,-0.3318 -13.17125,-0.12396 -19.75479,-0.19727 -3.80496,-0.003 -7.60992,-0.004 -11.41488,0.002 z"
     id="path14043"
     transform="scale(0.75000046)" />
  <path
     style="fill:#aaffaa;fill-opacity:1;stroke-width:0.237588"
     d="m 178.92736,392.2882 c -4.21762,0.20992 -7.41801,3.31424 -10.34627,6.01317 -1.41377,1.32407 -3.41932,2.7911 -2.94236,5.01466 0.68647,2.79827 3.10949,4.67432 4.90486,6.77414 2.32308,2.55267 5.62274,4.91149 9.26662,4.19465 3.07951,-0.66054 5.57226,-2.81917 7.86725,-4.86171 1.56168,-1.57639 3.24009,-3.21381 4.04722,-5.314 -0.23065,-2.0303 -1.70991,-3.65851 -2.89675,-5.24422 -2.26714,-2.5653 -4.76861,-5.27359 -8.11519,-6.3571 -0.58075,-0.15714 -1.18373,-0.23303 -1.78538,-0.21959 z"
     id="path14045"
     transform="scale(0.75000046)" />
  <path
     style="fill:#aaffaa;fill-opacity:1;stroke-width:0.237588"
     d="m 181.14985,443.86764 c -4.46564,0.086 -8.95321,-0.0717 -13.40396,0.3059 -2.35323,0.63883 -2.75799,3.46519 -2.65022,5.5429 0.14382,1.99916 -0.16596,4.14174 0.62247,6.02562 1.35654,2.09859 4.08977,1.88848 6.2652,1.92369 5.14355,-0.031 10.31347,0.2595 15.43897,-0.25916 2.1215,-0.0973 3.38866,-2.18115 3.4102,-4.13319 0.0623,-2.29603 0.1699,-4.66781 -0.3974,-6.90741 -0.68624,-1.90003 -2.80064,-2.54603 -4.65005,-2.46866 -1.54448,-0.0494 -3.0902,-0.0337 -4.63521,-0.0297 z"
     id="path14047"
     transform="scale(0.75000046)" />
  <path
     style="fill:#aaffaa;fill-opacity:1;stroke-width:0.237588"
     d="m 226.30663,391.21235 c -3.01986,2.75483 -5.92857,5.66768 -8.68312,8.69762 -0.99682,1.12978 -2.1309,2.78343 -1.0072,4.21216 2.16378,3.84434 5.30934,7.18719 9.06082,9.51201 2.35255,1.3637 5.39018,1.17046 7.59698,-0.39997 3.12712,-2.11169 6.40256,-4.38976 8.30713,-7.73571 1.21134,-2.45532 -0.49719,-5.117 -2.19797,-6.84975 -2.45357,-2.5023 -5.02919,-4.97672 -8.0468,-6.78657 -1.52658,-0.79904 -3.35539,-1.18402 -5.02984,-0.64979 z"
     id="path14049"
     transform="scale(0.75000046)" />
  <path
     style="fill:#aaffaa;fill-opacity:1;stroke-width:0.237588"
     d="m 233.18849,443.87109 c -4.4915,0.0879 -9.00653,-0.0831 -13.48233,0.3066 -2.11132,0.48654 -2.60354,2.87286 -2.55468,4.73376 0.0933,2.30556 -0.36581,4.80721 0.70059,6.94489 1.20013,2.00145 3.75496,1.66404 5.73952,1.76916 5.14688,0.055 10.31687,0.27846 15.45055,-0.15918 1.90868,-0.0878 3.50646,-1.59999 3.73199,-3.49099 0.21848,-2.52365 0.15738,-5.1152 -0.33801,-7.60243 -0.50321,-1.89342 -2.57646,-2.49768 -4.31977,-2.45276 -1.64147,-0.07 -3.28536,-0.0493 -4.92786,-0.0491 z"
     id="path14051"
     transform="scale(0.75000046)" />
  <path
     style="fill:#aaffaa;fill-opacity:1;stroke-width:0.336"
     d="m 318.44678,310.32373 c -2.12678,0.18559 -5.21554,0.16707 -5.91114,2.68408 -0.74805,4.99472 0.51948,10.02573 0.37443,15.04563 0.003,4.26783 0.19351,8.62962 -0.27384,12.83963 -5.17191,2.88321 -11.04084,4.27486 -16.24862,7.11271 -1.72762,0.46468 -2.59142,2.10623 -2.29956,3.81895 -0.007,2.8651 -0.50615,6.60083 2.18002,8.49461 2.41575,1.14067 5.10688,-0.23903 7.56414,-0.59197 4.15174,-0.97874 8.28729,-2.02443 12.43537,-3.01838 0.58382,5.31505 1.24092,10.70431 0.79736,16.01318 -2.44572,2.7778 -6.38129,3.30055 -9.57666,4.6123 -4.55666,1.66173 -9.40077,2.59125 -13.80447,4.61897 -1.69471,1.21867 -0.99598,3.64039 -1.10617,5.47438 0.18609,2.51619 0.84216,6.00104 3.77197,6.54728 4.64402,-0.26582 9.1281,-1.77991 13.65152,-2.7865 3.35538,-0.83373 6.69393,-1.74542 10.08139,-2.44299 -0.0513,8.30481 -1.71456,16.55394 -3.18424,24.74265 -0.65444,2.86936 -0.7286,6.14035 1.30045,8.51125 1.91107,2.71446 5.84403,3.8197 8.84229,2.40625 2.03466,-1.13696 2.81781,-3.50728 2.94824,-5.7041 2.30825,1.80687 5.24142,3.33623 8.24756,2.47852 2.19894,-0.24337 4.65724,-1.37525 4.97217,-3.83692 0.38691,-2.8655 -1.60204,-5.35335 -2.37562,-8.00241 -3.25599,-8.36335 -7.21321,-16.81846 -7.32946,-25.96536 6.33855,-1.65832 12.93814,-2.46185 19.06787,-4.84082 2.95872,-1.11516 3.54107,-4.70984 2.84228,-7.44043 -0.47131,-2.4375 -0.91238,-5.87818 -3.84277,-6.4917 -3.34431,-0.36126 -6.40528,1.54414 -9.59082,2.26074 -3.43028,1.00912 -6.75338,1.99392 -10.24268,2.78272 -0.72626,-6.0152 -1.57001,-11.97654 -2.15234,-18.00293 6.81799,-1.56392 13.9422,-2.64485 20.15283,-6.03614 3.01305,-1.53193 4.64141,-5.03991 3.97657,-8.33935 -0.2424,-2.4664 -2.28047,-5.21753 -5.03809,-4.47803 -7.07265,1.21414 -13.93186,3.40807 -20.90186,5.08252 -0.9965,-8.01231 -1.27159,-16.2895 -2.6875,-24.31738 -0.71561,-2.77791 -4.24191,-3.25772 -6.64062,-3.23096 z"
     id="path14053"
     transform="scale(0.75000046)" />
  <path
     style="fill:#aaffaa;fill-opacity:1;stroke-width:0.336"
     d="m 302.74463,254.00342 c -2.8482,0.18328 -4.44917,3.30635 -4.13525,5.91748 -0.24173,15.19794 -0.26153,30.40186 -0.14901,45.60095 0.14569,2.19026 -0.19289,5.44541 2.41121,6.32337 3.01574,1.12342 6.49962,0.50904 9.58201,-0.15463 1.86217,-0.97115 1.57857,-3.56441 1.78913,-5.39788 0.15534,-3.96713 0.0974,-7.93838 0.14058,-11.90745 3.64339,5.08722 6.28956,10.81096 9.87549,15.92529 1.92933,1.73847 4.91295,0.69386 6.87598,-0.49756 1.91708,-1.20835 4.86621,-2.3885 4.61474,-5.15234 -0.11824,-3.35631 -3.0057,-5.63294 -4.23974,-8.58301 -7.68965,-13.23357 -15.3565,-26.4876 -23.41748,-39.49903 -0.78777,-1.16738 -1.72518,-2.68067 -3.34766,-2.57519 z"
     id="path14055"
     transform="scale(0.75000046)" />
  <path
     style="fill:#aaffaa;fill-opacity:1;stroke-width:0.336"
     d="m 348.15137,214.75147 c -5.83839,0.32132 -11.73551,0.48339 -17.48389,1.62792 -1.9778,0.18926 -3.30061,2.14499 -2.85205,4.06153 0.69446,3.50795 3.40911,6.13329 4.85099,9.33186 4.45719,7.71139 8.66852,15.58153 13.51208,23.05978 1.10994,2.23394 4.45187,2.49156 5.87228,0.44381 2.00551,-2.32182 0.77356,-5.56028 0.93208,-8.29984 -0.40783,-8.91923 -0.43765,-17.96344 -1.19233,-26.90475 -0.15045,-1.96705 -1.57389,-3.53119 -3.63916,-3.32031 z"
     id="path14057"
     transform="scale(0.75000046)" />
  <path
     style="fill:#aaffaa;fill-opacity:1;stroke-width:0.336"
     d="m 335.49268,188.83301 c -5.13364,0.27915 -9.15441,4.73276 -10.65918,9.38135 -1.85329,5.92795 2.52781,12.31442 8.22802,14.01709 3.37851,1.17204 7.1947,0.32363 9.87793,-2.00538 6.03056,-4.2648 6.2809,-14.40157 0.28174,-18.81835 -2.20213,-1.62626 -5.00402,-2.50836 -7.72851,-2.57471 z"
     id="path14059"
     transform="scale(0.75000046)" />
  <path
     style="fill:#aaffaa;fill-opacity:1;stroke-width:0.336"
     d="m 482.47705,232.7417 c -3.18801,0.53496 -5.46271,3.25056 -8.104,4.85254 -0.89513,-2.64808 -3.92986,-3.37737 -6.42668,-3.2484 -2.24709,-0.105 -5.51441,-0.34443 -6.30037,2.39244 -0.0544,1.17768 -0.93666,-0.48912 -1.37647,-0.63281 -1.99572,-1.89392 -4.91517,-4.06356 -7.76806,-2.6499 -2.72992,1.44872 -5.21411,4.42676 -4.87647,7.6748 0.97261,2.85462 3.24445,5.06099 4.8531,7.56923 2.69823,3.80636 5.64743,7.45476 7.99602,11.4962 0.35037,7.88264 0.17349,15.81389 1.10889,23.65674 0.43177,2.80274 3.84857,3.34919 6.19189,3.30518 2.12568,-0.11544 4.67388,-0.45186 6.12116,-2.1325 0.8475,-2.15597 0.26436,-4.62861 0.52777,-6.91096 0.31101,-6.00206 -0.19442,-12.14463 1.24951,-18.02881 1.07235,-4.65974 5.39981,-7.40126 8.05322,-11.10156 2.61021,-3.07249 4.43374,-7.26333 3.16944,-11.30762 -0.47681,-2.20495 -1.77068,-4.99321 -4.41895,-4.93457 z"
     id="path14061"
     transform="scale(0.75000046)" />
  <path
     style="fill:#aaffaa;fill-opacity:1;stroke-width:0.336"
     d="m 466.52637,293.99121 c -3.09412,0.41655 -3.36528,4.36615 -5.70313,5.80664 -2.60977,0.37553 -5.99696,-0.89801 -7.95654,1.54053 -1.60186,1.97149 -0.17321,4.38629 0.73828,6.28857 0.92383,2.2511 0.94762,5.0321 -0.90332,6.83057 -1.78303,2.14532 -0.92827,5.77237 1.8042,6.63721 1.99777,1.02279 4.23273,-0.1418 6.26074,0.41553 2.51122,1.37042 3.2662,5.37168 6.60987,5.23828 3.02369,0.1263 4.39073,-3.05216 4.99399,-5.52239 -0.10182,-1.40049 1.14464,-0.79723 2.01626,-0.7574 2.66034,0.1802 6.106,0.71521 7.83203,-1.87793 1.56023,-2.0977 -0.0763,-4.48188 -0.68213,-6.58154 -1.26991,-3.42649 2.55402,-6.21732 1.4751,-9.61621 -0.792,-2.5152 -3.79818,-3.18249 -6.07464,-2.4649 -1.60587,0.2977 -3.20131,0.64814 -4.80134,0.97515 -0.9652,-2.59499 -1.79727,-6.11847 -4.88086,-6.87402 -0.23989,-0.0436 -0.48535,-0.0571 -0.72851,-0.0381 z"
     id="path14063"
     transform="scale(0.75000046)" />
  <path
     style="fill:#aaffaa;fill-opacity:1;stroke-width:0.336"
     d="m 467.08252,334.52734 c -2.03124,0.0608 -4.93814,0.0331 -5.55371,2.48975 -0.79671,6.52596 -0.60446,13.14408 -1.04261,19.70438 -0.15632,2.42922 -5.6e-4,5.25082 -1.87284,7.17946 -3.76024,5.06297 -8.15959,9.73966 -11.27461,15.22465 -0.46488,2.11356 1.53663,3.83078 2.75451,5.35684 1.82738,1.74641 3.74925,4.24486 6.5044,4.2378 2.21444,-0.59347 3.59838,-2.76752 5.20703,-4.15381 1.81192,2.42957 5.19501,1.76035 7.83249,1.94109 1.84368,0.17184 4.06636,-0.42243 4.51956,-2.48992 0.0395,-1.63933 1.17605,0.2807 1.92475,0.54079 3.13944,2.2118 8.10283,3.27581 11.07525,0.22386 1.68709,-1.7305 1.14847,-4.39192 -0.16895,-6.16748 -3.67298,-5.66613 -7.59884,-11.13696 -11.05175,-16.92481 -0.54559,-7.85919 -0.49738,-15.7876 -1.46436,-23.6206 -0.29069,-2.80688 -3.5304,-3.36174 -5.82764,-3.4961 -0.51967,-0.0351 -1.04067,-0.0507 -1.56152,-0.0459 z"
     id="path14065"
     transform="scale(0.75000046)" />
  <path
     style="fill:#aaffaa;fill-opacity:1;stroke-width:0.336"
     d="m 554.77588,392.55273 c -4.7162,0.35211 -8.36402,3.93251 -11.30957,7.30713 -2.18262,2.52776 -0.78908,6.24864 1.42669,8.24359 2.29704,2.1012 4.46222,4.67872 7.48835,5.70417 4.7827,1.1527 9.095,-2.24831 12.2848,-5.39298 2.59969,-2.15728 2.88864,-6.39664 0.52916,-8.84091 -2.70034,-3.11871 -5.92807,-6.96491 -10.41943,-7.021 z"
     id="path14067"
     transform="scale(0.75000046)" />
  <path
     style="fill:#aaffaa;fill-opacity:1;stroke-width:0.336"
     d="m 557.93262,444.28125 c -4.68693,0.10494 -9.39773,-0.0315 -14.06787,0.38232 -2.62265,0.72879 -2.39395,3.98128 -2.73535,6.12354 -0.21405,2.4337 0.51821,5.55209 2.96909,6.53599 6.99642,0.30147 14.0587,0.5417 21.04286,-0.14714 2.59269,-0.17612 2.54453,-3.28407 2.79127,-5.24188 0.12338,-2.55597 0.23013,-6.21482 -2.70508,-7.2622 -2.36811,-0.61347 -4.87573,-0.32712 -7.29492,-0.39063 z"
     id="path14069"
     transform="scale(0.75000046)" />
  <path
     style="fill:#aaffaa;fill-opacity:1;stroke-width:0.336"
     d="m 606.40967,444.31592 c -3.6783,0.15268 -7.41905,-0.11232 -11.0586,0.43262 -2.2774,1.03155 -2.06379,3.93418 -2.31542,6.03955 -0.0873,2.3442 0.1654,5.73227 2.89941,6.41992 6.70611,0.56746 13.47429,0.52516 20.18799,0.10596 1.87577,-0.0593 3.39564,-1.58279 3.40314,-3.47692 0.59961,-3.01609 0.94333,-6.82585 -1.79264,-8.95451 -1.87516,-1.32045 -4.36684,-0.3626 -6.51746,-0.61664 -1.60214,0.0167 -3.20428,0.0333 -4.80642,0.05 z"
     id="path14071"
     transform="scale(0.75000046)" />
  <path
     style="fill:#aaffaa;fill-opacity:1;stroke-width:0.336"
     d="m 607.23145,392.44873 c -4.54322,0.42958 -8.35876,3.57271 -11.29591,6.85562 -1.15747,1.50389 -3.11779,3.47424 -1.56861,5.37255 2.19312,3.56479 5.37855,6.5287 8.92116,8.72837 3.81195,1.99416 8.07867,-0.34875 10.89264,-2.98664 2.019,-2.05404 5.17883,-4.17645 4.72845,-7.46648 -0.70204,-3.4697 -3.83013,-5.70616 -6.21389,-8.05266 -1.51799,-1.32769 -3.36159,-2.53838 -5.46384,-2.45076 z"
     id="path14073"
     transform="scale(0.75000046)" />
  <path
     style="fill:#aaffaa;fill-opacity:1;stroke-width:0.336"
     d="m 551.81787,318.78272 c -2.87783,0.19695 -5.9462,-0.36684 -8.69824,0.66552 -2.02663,1.44067 -1.67328,4.34483 -1.91504,6.53565 -0.102,2.44118 0.13419,5.39529 2.15225,6.99585 3.28497,0.62937 6.72415,0.31492 10.07431,0.43264 3.94419,-0.11598 7.96489,0.23614 11.85547,-0.50808 2.70861,-0.98912 2.67937,-4.25593 2.55127,-6.64746 -0.19423,-2.30249 0.45515,-5.59366 -2.17334,-6.74659 -3.66917,-1.11714 -7.60832,-0.54873 -11.39111,-0.72975 -0.81852,7.4e-4 -1.63705,10e-4 -2.45557,0.002 z"
     id="path14075"
     transform="scale(0.75000046)" />
  <path
     style="fill:#aaffaa;fill-opacity:1;stroke-width:0.336"
     d="m 606.99512,318.79395 c -3.88815,0.10689 -7.82236,-0.0969 -11.67822,0.44189 -2.19844,0.96971 -1.95592,3.85743 -2.24175,5.85989 -0.087,2.64216 -0.24429,6.15524 2.35014,7.70896 3.31357,0.92078 6.85441,0.45796 10.26123,0.55029 4.00526,-0.23424 8.65953,-2e-4 11.79737,-2.93262 2.67692,-2.94677 3.26141,-8.16289 0.28369,-11.10009 -3.50115,-0.66444 -7.20214,-0.44675 -10.77246,-0.52832 z"
     id="path14077"
     transform="scale(0.75000046)" />
  <path
     style="fill:#aaffaa;fill-opacity:1;stroke-width:0.336"
     d="m 552.6709,300.08887 c -3.1743,0.18174 -6.53031,-0.21947 -9.56592,0.85547 -2.03918,1.4998 -1.73116,4.44512 -1.92529,6.6958 -0.1542,2.36901 0.89874,5.67189 3.75244,5.67383 6.75379,0.15619 13.53258,0.23601 20.27539,-0.18995 2.64546,-0.60275 2.56447,-3.85699 2.76532,-5.99249 0.11751,-2.48509 -0.22833,-6.00723 -3.08319,-6.75555 -4.07206,-0.12942 -8.14349,-0.32109 -12.21875,-0.28711 z"
     id="path14079"
     transform="scale(0.75000046)" />
  <path
     style="fill:#aaffaa;fill-opacity:1;stroke-width:0.336"
     d="m 603.60107,300.20459 c -3.05579,0.23387 -6.36918,-0.43573 -9.21416,0.91312 -1.39201,1.95619 -1.27987,4.65779 -1.35795,7.00234 -0.13268,2.27904 1.30117,4.81958 3.55893,5.37995 6.67237,-0.12931 13.38257,0.29136 20.02979,-0.4082 1.94571,-0.0705 2.96296,-1.9328 2.99371,-3.69017 0.43164,-2.8098 0.81395,-6.23407 -1.58481,-8.32198 -1.71206,-1.58522 -4.28571,-0.55772 -6.39373,-0.86309 -2.67725,-0.009 -5.35452,-0.0285 -8.03178,-0.012 z"
     id="path14081"
     transform="scale(0.75000046)" />
  <path
     style="fill:#aaffaa;fill-opacity:1;stroke-width:0.336"
     d="m 606.05518,271.27734 c -6.93022,-0.16451 -11.92253,8.42092 -8.66455,14.4253 2.32667,4.19258 7.62939,7.25494 12.37825,5.34035 3.98681,-1.34929 7.23221,-5.25746 6.84388,-9.61033 0.50052,-4.48115 -2.75715,-8.97975 -7.21188,-9.80278 -1.09337,-0.26316 -2.22145,-0.38295 -3.3457,-0.35254 z"
     id="path14083"
     transform="scale(0.75000046)" />
  <path
     style="fill:#aaffaa;fill-opacity:1;stroke-width:0.336"
     d="m 555.35596,271.1875 c -6.6873,-0.10414 -12.46133,7.39805 -9.86084,13.76611 1.93532,5.10866 8.54668,8.52789 13.55615,5.61182 3.31504,-1.86524 6.01692,-5.3682 5.65723,-9.34326 0.22773,-4.37896 -2.69039,-8.85011 -7.08496,-9.7876 -0.74228,-0.17297 -1.50555,-0.2549 -2.26758,-0.24707 z"
     id="path14085"
     transform="scale(0.75000046)" />
  <path
     style="fill:#aaffaa;fill-opacity:1;stroke-width:0.336"
     d="m 554.59815,244.65576 c -5.53381,-0.0349 -10.00527,5.48073 -9.47181,10.85498 -0.42673,3.87533 2.65236,7.01275 5.85804,8.63574 6.04702,2.25788 13.25739,-2.47619 13.92578,-8.82128 0.34368,-5.49379 -4.70098,-11.01708 -10.31201,-10.66944 z"
     id="path14087"
     transform="scale(0.75000046)" />
  <path
     style="fill:#aaffaa;fill-opacity:1;stroke-width:0.336"
     d="m 605.49463,245.01709 c -5.84922,0.13171 -9.89886,6.72099 -8.72168,12.15479 1.32439,5.83331 8.37569,9.11861 13.7915,6.80224 4.38038,-1.56431 6.66548,-6.54205 5.96875,-10.98291 -0.27721,-4.25584 -4.04648,-8.0381 -8.39741,-7.89773 -0.87905,-0.0521 -1.76042,-0.0868 -2.64116,-0.0764 z"
     id="path14089"
     transform="scale(0.75000046)" />
  <path
     style="fill:#aaffaa;fill-opacity:1;stroke-width:0.336"
     d="m 606.56201,218.27344 c -3.02474,-0.26223 -5.98392,1.19768 -7.71289,3.67138 -2.82603,3.88421 -3.16507,10.21614 0.79932,13.47461 2.84748,2.41673 6.94028,3.56536 10.48047,2.00928 3.97838,-1.40064 6.90483,-5.43054 6.52392,-9.70898 -0.0271,-5.23618 -4.88721,-9.72437 -10.09082,-9.44629 z"
     id="path14091"
     transform="scale(0.75000046)" />
  <path
     style="fill:#aaffaa;fill-opacity:1;stroke-width:0.336"
     d="m 554.45654,218.25098 c -6.3787,-0.10785 -11.01704,7.21258 -9.28369,13.07666 1.49627,4.81227 7.04078,7.74668 11.8833,6.40576 4.31159,-1.00308 7.72602,-5.10213 7.65918,-9.58301 0.39242,-3.08781 -1.0635,-6.15172 -3.59121,-7.93055 -1.8623,-1.51498 -4.31579,-2.01758 -6.66758,-1.96886 z"
     id="path14093"
     transform="scale(0.75000046)" />
  <path
     style="fill:#aaffaa;fill-opacity:1;stroke-width:0.336"
     d="m 559.5708,174.76953 c -5.25535,0.14954 -10.55432,-0.0786 -15.78174,0.46192 -2.53477,0.81623 -2.33197,3.92669 -2.6582,6.08007 -0.36726,2.68286 0.72287,6.28241 3.81348,6.65821 6.36258,0.28561 12.75375,0.18506 19.11865,-0.0591 1.73178,0.0528 3.58085,-0.88602 3.5098,-2.84184 0.44187,-3.03066 1.13088,-6.79476 -1.20707,-9.24312 -1.89531,-1.47805 -4.57175,-0.91793 -6.79492,-1.05615 z"
     id="path14095"
     transform="scale(0.75000046)" />
  <path
     style="fill:#aaffaa;fill-opacity:1;stroke-width:0.336"
     d="m 605.44385,174.66846 c -3.3797,0.16918 -6.88578,-0.19276 -10.17383,0.6914 -2.0617,1.40297 -1.82413,4.31783 -2.01762,6.52196 -0.0183,2.22156 0.50549,5.5006 3.18071,5.85793 6.12787,0.31858 12.29966,0.7583 18.42285,0.14697 1.83341,-0.16125 4.47899,-0.38124 4.71679,-2.71631 0.59943,-3.10373 1.40745,-7.15153 -1.33496,-9.50391 -2.1158,-1.39513 -4.86617,-0.67929 -7.24927,-0.95389 -1.84793,-0.0403 -3.69633,-0.0544 -5.54467,-0.0442 z"
     id="path14097"
     transform="scale(0.75000046)" />
</svg>
